<?xml version="1.0" encoding="utf-8" standalone="no"?>
<!DOCTYPE svg PUBLIC "-//W3C//DTD SVG 1.1//EN"
  "http://www.w3.org/Graphics/SVG/1.1/DTD/svg11.dtd">
<svg xmlns:xlink="http://www.w3.org/1999/xlink" width="187.793477pt" height="128.034206pt" viewBox="0 0 187.793477 128.034206" xmlns="http://www.w3.org/2000/svg" version="1.1">
 <metadata>
  <rdf:RDF xmlns:dc="http://purl.org/dc/elements/1.1/" xmlns:cc="http://creativecommons.org/ns#" xmlns:rdf="http://www.w3.org/1999/02/22-rdf-syntax-ns#">
   <cc:Work>
    <dc:type rdf:resource="http://purl.org/dc/dcmitype/StillImage"/>
    <dc:date>2025-10-08T19:35:54.236587</dc:date>
    <dc:format>image/svg+xml</dc:format>
    <dc:creator>
     <cc:Agent>
      <dc:title>Matplotlib v3.9.4, https://matplotlib.org/</dc:title>
     </cc:Agent>
    </dc:creator>
   </cc:Work>
  </rdf:RDF>
 </metadata>
 <defs>
  <style type="text/css">*{stroke-linejoin: round; stroke-linecap: butt}</style>
 </defs>
 <g id="figure_1">
  <g id="patch_1">
   <path d="M 0 128.034206 
L 187.793477 128.034206 
L 187.793477 0 
L 0 0 
z
" style="fill: #ffffff"/>
  </g>
  <g id="axes_1">
   <g id="patch_2">
    <path d="M 16.793477 114.48 
L 184.193477 114.48 
L 184.193477 3.6 
L 16.793477 3.6 
z
" style="fill: #ffffff"/>
   </g>
   <g id="matplotlib.axis_1">
    <g id="xtick_1">
     <g id="line2d_1">
      <defs>
       <path id="m43215f7951" d="M 0 0 
L 0 -3 
" style="stroke: #000000; stroke-width: 0.5"/>
      </defs>
      <g>
       <use xlink:href="#m43215f7951" x="57.012958" y="114.48" style="stroke: #000000; stroke-width: 0.5"/>
      </g>
     </g>
     <g id="line2d_2">
      <defs>
       <path id="mb9a5c2bb05" d="M 0 0 
L 0 3 
" style="stroke: #000000; stroke-width: 0.5"/>
      </defs>
      <g>
       <use xlink:href="#mb9a5c2bb05" x="57.012958" y="3.6" style="stroke: #000000; stroke-width: 0.5"/>
      </g>
     </g>
     <g id="text_1">
      <!-- $\mathdefault{−2000}$ -->
      <g transform="translate(46.144801 122.948824) scale(0.07 -0.07)">
       <defs>
        <path id="CMSY10-0" d="M 4218 1472 
C 4326 1472 4442 1472 4442 1600 
C 4442 1728 4326 1728 4218 1728 
L 755 1728 
C 646 1728 531 1728 531 1600 
C 531 1472 646 1472 755 1472 
L 4218 1472 
z
" transform="scale(0.015625)"/>
        <path id="NimbusSanL-Regu-32" d="M 3238 558 
L 851 558 
C 909 930 1114 1167 1670 1494 
L 2310 1840 
C 2944 2186 3270 2653 3270 3211 
C 3270 3589 3117 3942 2848 4185 
C 2579 4429 2246 4544 1818 4544 
C 1242 4544 813 4339 563 3955 
C 403 3711 333 3429 320 2967 
L 883 2967 
C 902 3275 941 3461 1018 3608 
C 1165 3884 1459 4051 1798 4051 
C 2310 4051 2694 3685 2694 3198 
C 2694 2839 2483 2531 2080 2301 
L 1491 1968 
C 544 1430 269 1000 218 0 
L 3238 0 
L 3238 558 
z
" transform="scale(0.015625)"/>
        <path id="NimbusSanL-Regu-30" d="M 1760 4544 
C 1338 4544 954 4360 717 4046 
C 422 3651 275 3044 275 2208 
C 275 683 787 -128 1760 -128 
C 2720 -128 3245 683 3245 2170 
C 3245 3050 3104 3638 2803 4046 
C 2566 4366 2189 4544 1760 4544 
z
M 1760 4044 
C 2368 4044 2669 3432 2669 2221 
C 2669 939 2374 340 1747 340 
C 1152 340 851 965 851 2202 
C 851 3438 1152 4044 1760 4044 
z
" transform="scale(0.015625)"/>
       </defs>
       <use xlink:href="#CMSY10-0" transform="scale(0.996264)"/>
       <use xlink:href="#NimbusSanL-Regu-32" transform="translate(77.487468 0) scale(0.996264)"/>
       <use xlink:href="#NimbusSanL-Regu-30" transform="translate(132.879145 0) scale(0.996264)"/>
       <use xlink:href="#NimbusSanL-Regu-30" transform="translate(188.270822 0) scale(0.996264)"/>
       <use xlink:href="#NimbusSanL-Regu-30" transform="translate(243.662499 0) scale(0.996264)"/>
      </g>
     </g>
    </g>
    <g id="xtick_2">
     <g id="line2d_3">
      <g>
       <use xlink:href="#m43215f7951" x="100.493477" y="114.48" style="stroke: #000000; stroke-width: 0.5"/>
      </g>
     </g>
     <g id="line2d_4">
      <g>
       <use xlink:href="#mb9a5c2bb05" x="100.493477" y="3.6" style="stroke: #000000; stroke-width: 0.5"/>
      </g>
     </g>
     <g id="text_2">
      <!-- $\mathdefault{0}$ -->
      <g transform="translate(98.554771 122.948824) scale(0.07 -0.07)">
       <use xlink:href="#NimbusSanL-Regu-30" transform="scale(0.996264)"/>
      </g>
     </g>
    </g>
    <g id="xtick_3">
     <g id="line2d_5">
      <g>
       <use xlink:href="#m43215f7951" x="143.973997" y="114.48" style="stroke: #000000; stroke-width: 0.5"/>
      </g>
     </g>
     <g id="line2d_6">
      <g>
       <use xlink:href="#mb9a5c2bb05" x="143.973997" y="3.6" style="stroke: #000000; stroke-width: 0.5"/>
      </g>
     </g>
     <g id="text_3">
      <!-- $\mathdefault{2000}$ -->
      <g transform="translate(136.219172 122.948824) scale(0.07 -0.07)">
       <use xlink:href="#NimbusSanL-Regu-32" transform="scale(0.996264)"/>
       <use xlink:href="#NimbusSanL-Regu-30" transform="translate(55.391677 0) scale(0.996264)"/>
       <use xlink:href="#NimbusSanL-Regu-30" transform="translate(110.783354 0) scale(0.996264)"/>
       <use xlink:href="#NimbusSanL-Regu-30" transform="translate(166.175031 0) scale(0.996264)"/>
      </g>
     </g>
    </g>
    <g id="xtick_4">
     <g id="line2d_7">
      <defs>
       <path id="mfbd2154f81" d="M 0 0 
L 0 -1.5 
" style="stroke: #000000; stroke-width: 0.5"/>
      </defs>
      <g>
       <use xlink:href="#mfbd2154f81" x="24.402568" y="114.48" style="stroke: #000000; stroke-width: 0.5"/>
      </g>
     </g>
     <g id="line2d_8">
      <defs>
       <path id="m63e8dfdd9a" d="M 0 0 
L 0 1.5 
" style="stroke: #000000; stroke-width: 0.5"/>
      </defs>
      <g>
       <use xlink:href="#m63e8dfdd9a" x="24.402568" y="3.6" style="stroke: #000000; stroke-width: 0.5"/>
      </g>
     </g>
    </g>
    <g id="xtick_5">
     <g id="line2d_9">
      <g>
       <use xlink:href="#mfbd2154f81" x="35.272698" y="114.48" style="stroke: #000000; stroke-width: 0.5"/>
      </g>
     </g>
     <g id="line2d_10">
      <g>
       <use xlink:href="#m63e8dfdd9a" x="35.272698" y="3.6" style="stroke: #000000; stroke-width: 0.5"/>
      </g>
     </g>
    </g>
    <g id="xtick_6">
     <g id="line2d_11">
      <g>
       <use xlink:href="#mfbd2154f81" x="46.142828" y="114.48" style="stroke: #000000; stroke-width: 0.5"/>
      </g>
     </g>
     <g id="line2d_12">
      <g>
       <use xlink:href="#m63e8dfdd9a" x="46.142828" y="3.6" style="stroke: #000000; stroke-width: 0.5"/>
      </g>
     </g>
    </g>
    <g id="xtick_7">
     <g id="line2d_13">
      <g>
       <use xlink:href="#mfbd2154f81" x="67.883088" y="114.48" style="stroke: #000000; stroke-width: 0.5"/>
      </g>
     </g>
     <g id="line2d_14">
      <g>
       <use xlink:href="#m63e8dfdd9a" x="67.883088" y="3.6" style="stroke: #000000; stroke-width: 0.5"/>
      </g>
     </g>
    </g>
    <g id="xtick_8">
     <g id="line2d_15">
      <g>
       <use xlink:href="#mfbd2154f81" x="78.753218" y="114.48" style="stroke: #000000; stroke-width: 0.5"/>
      </g>
     </g>
     <g id="line2d_16">
      <g>
       <use xlink:href="#m63e8dfdd9a" x="78.753218" y="3.6" style="stroke: #000000; stroke-width: 0.5"/>
      </g>
     </g>
    </g>
    <g id="xtick_9">
     <g id="line2d_17">
      <g>
       <use xlink:href="#mfbd2154f81" x="89.623347" y="114.48" style="stroke: #000000; stroke-width: 0.5"/>
      </g>
     </g>
     <g id="line2d_18">
      <g>
       <use xlink:href="#m63e8dfdd9a" x="89.623347" y="3.6" style="stroke: #000000; stroke-width: 0.5"/>
      </g>
     </g>
    </g>
    <g id="xtick_10">
     <g id="line2d_19">
      <g>
       <use xlink:href="#mfbd2154f81" x="111.363607" y="114.48" style="stroke: #000000; stroke-width: 0.5"/>
      </g>
     </g>
     <g id="line2d_20">
      <g>
       <use xlink:href="#m63e8dfdd9a" x="111.363607" y="3.6" style="stroke: #000000; stroke-width: 0.5"/>
      </g>
     </g>
    </g>
    <g id="xtick_11">
     <g id="line2d_21">
      <g>
       <use xlink:href="#mfbd2154f81" x="122.233737" y="114.48" style="stroke: #000000; stroke-width: 0.5"/>
      </g>
     </g>
     <g id="line2d_22">
      <g>
       <use xlink:href="#m63e8dfdd9a" x="122.233737" y="3.6" style="stroke: #000000; stroke-width: 0.5"/>
      </g>
     </g>
    </g>
    <g id="xtick_12">
     <g id="line2d_23">
      <g>
       <use xlink:href="#mfbd2154f81" x="133.103867" y="114.48" style="stroke: #000000; stroke-width: 0.5"/>
      </g>
     </g>
     <g id="line2d_24">
      <g>
       <use xlink:href="#m63e8dfdd9a" x="133.103867" y="3.6" style="stroke: #000000; stroke-width: 0.5"/>
      </g>
     </g>
    </g>
    <g id="xtick_13">
     <g id="line2d_25">
      <g>
       <use xlink:href="#mfbd2154f81" x="154.844127" y="114.48" style="stroke: #000000; stroke-width: 0.5"/>
      </g>
     </g>
     <g id="line2d_26">
      <g>
       <use xlink:href="#m63e8dfdd9a" x="154.844127" y="3.6" style="stroke: #000000; stroke-width: 0.5"/>
      </g>
     </g>
    </g>
    <g id="xtick_14">
     <g id="line2d_27">
      <g>
       <use xlink:href="#mfbd2154f81" x="165.714257" y="114.48" style="stroke: #000000; stroke-width: 0.5"/>
      </g>
     </g>
     <g id="line2d_28">
      <g>
       <use xlink:href="#m63e8dfdd9a" x="165.714257" y="3.6" style="stroke: #000000; stroke-width: 0.5"/>
      </g>
     </g>
    </g>
    <g id="xtick_15">
     <g id="line2d_29">
      <g>
       <use xlink:href="#mfbd2154f81" x="176.584386" y="114.48" style="stroke: #000000; stroke-width: 0.5"/>
      </g>
     </g>
     <g id="line2d_30">
      <g>
       <use xlink:href="#m63e8dfdd9a" x="176.584386" y="3.6" style="stroke: #000000; stroke-width: 0.5"/>
      </g>
     </g>
    </g>
   </g>
   <g id="matplotlib.axis_2">
    <g id="ytick_1">
     <g id="line2d_31">
      <defs>
       <path id="m65c17b7edf" d="M 0 0 
L 3 0 
" style="stroke: #000000; stroke-width: 0.5"/>
      </defs>
      <g>
       <use xlink:href="#m65c17b7edf" x="16.793477" y="109.44" style="stroke: #000000; stroke-width: 0.5"/>
      </g>
     </g>
     <g id="line2d_32">
      <defs>
       <path id="mbf82a04faf" d="M 0 0 
L -3 0 
" style="stroke: #000000; stroke-width: 0.5"/>
      </defs>
      <g>
       <use xlink:href="#mbf82a04faf" x="184.193477" y="109.44" style="stroke: #000000; stroke-width: 0.5"/>
      </g>
     </g>
     <g id="text_4">
      <!-- $\mathdefault{0.0}$ -->
      <g transform="translate(3.6 111.924412) scale(0.07 -0.07)">
       <defs>
        <path id="NimbusSanL-Regu-2e" d="M 1222 667 
L 557 667 
L 557 0 
L 1222 0 
L 1222 667 
z
" transform="scale(0.015625)"/>
       </defs>
       <use xlink:href="#NimbusSanL-Regu-30" transform="scale(0.996264)"/>
       <use xlink:href="#NimbusSanL-Regu-2e" transform="translate(55.391677 0) scale(0.996264)"/>
       <use xlink:href="#NimbusSanL-Regu-30" transform="translate(83.086847 0) scale(0.996264)"/>
      </g>
     </g>
    </g>
    <g id="ytick_2">
     <g id="line2d_33">
      <g>
       <use xlink:href="#m65c17b7edf" x="16.793477" y="89.28" style="stroke: #000000; stroke-width: 0.5"/>
      </g>
     </g>
     <g id="line2d_34">
      <g>
       <use xlink:href="#mbf82a04faf" x="184.193477" y="89.28" style="stroke: #000000; stroke-width: 0.5"/>
      </g>
     </g>
     <g id="text_5">
      <!-- $\mathdefault{0.2}$ -->
      <g transform="translate(3.6 91.764412) scale(0.07 -0.07)">
       <use xlink:href="#NimbusSanL-Regu-30" transform="scale(0.996264)"/>
       <use xlink:href="#NimbusSanL-Regu-2e" transform="translate(55.391677 0) scale(0.996264)"/>
       <use xlink:href="#NimbusSanL-Regu-32" transform="translate(83.086847 0) scale(0.996264)"/>
      </g>
     </g>
    </g>
    <g id="ytick_3">
     <g id="line2d_35">
      <g>
       <use xlink:href="#m65c17b7edf" x="16.793477" y="69.12" style="stroke: #000000; stroke-width: 0.5"/>
      </g>
     </g>
     <g id="line2d_36">
      <g>
       <use xlink:href="#mbf82a04faf" x="184.193477" y="69.12" style="stroke: #000000; stroke-width: 0.5"/>
      </g>
     </g>
     <g id="text_6">
      <!-- $\mathdefault{0.4}$ -->
      <g transform="translate(3.6 71.604412) scale(0.07 -0.07)">
       <defs>
        <path id="NimbusSanL-Regu-34" d="M 2093 1088 
L 2093 0 
L 2656 0 
L 2656 1088 
L 3328 1088 
L 3328 1594 
L 2656 1594 
L 2656 4545 
L 2240 4545 
L 179 1684 
L 179 1088 
L 2093 1088 
z
M 2093 1594 
L 672 1594 
L 2093 3583 
L 2093 1594 
z
" transform="scale(0.015625)"/>
       </defs>
       <use xlink:href="#NimbusSanL-Regu-30" transform="scale(0.996264)"/>
       <use xlink:href="#NimbusSanL-Regu-2e" transform="translate(55.391677 0) scale(0.996264)"/>
       <use xlink:href="#NimbusSanL-Regu-34" transform="translate(83.086847 0) scale(0.996264)"/>
      </g>
     </g>
    </g>
    <g id="ytick_4">
     <g id="line2d_37">
      <g>
       <use xlink:href="#m65c17b7edf" x="16.793477" y="48.96" style="stroke: #000000; stroke-width: 0.5"/>
      </g>
     </g>
     <g id="line2d_38">
      <g>
       <use xlink:href="#mbf82a04faf" x="184.193477" y="48.96" style="stroke: #000000; stroke-width: 0.5"/>
      </g>
     </g>
     <g id="text_7">
      <!-- $\mathdefault{0.6}$ -->
      <g transform="translate(3.6 51.444412) scale(0.07 -0.07)">
       <defs>
        <path id="NimbusSanL-Regu-36" d="M 3187 3382 
C 3078 4111 2592 4544 1901 4544 
C 1402 4544 954 4302 685 3900 
C 403 3460 275 2904 275 2081 
C 275 1321 390 836 659 434 
C 902 69 1299 -128 1798 -128 
C 2662 -128 3283 518 3283 1415 
C 3283 2268 2707 2868 1894 2868 
C 1446 2868 1094 2695 851 2362 
C 858 3444 1216 4044 1862 4044 
C 2259 4044 2534 3803 2624 3382 
L 3187 3382 
z
M 1824 2368 
C 2368 2368 2707 1986 2707 1370 
C 2707 793 2323 372 1805 372 
C 1280 372 883 813 883 1402 
C 883 1973 1267 2368 1824 2368 
z
" transform="scale(0.015625)"/>
       </defs>
       <use xlink:href="#NimbusSanL-Regu-30" transform="scale(0.996264)"/>
       <use xlink:href="#NimbusSanL-Regu-2e" transform="translate(55.391677 0) scale(0.996264)"/>
       <use xlink:href="#NimbusSanL-Regu-36" transform="translate(83.086847 0) scale(0.996264)"/>
      </g>
     </g>
    </g>
    <g id="ytick_5">
     <g id="line2d_39">
      <g>
       <use xlink:href="#m65c17b7edf" x="16.793477" y="28.8" style="stroke: #000000; stroke-width: 0.5"/>
      </g>
     </g>
     <g id="line2d_40">
      <g>
       <use xlink:href="#mbf82a04faf" x="184.193477" y="28.8" style="stroke: #000000; stroke-width: 0.5"/>
      </g>
     </g>
     <g id="text_8">
      <!-- $\mathdefault{0.8}$ -->
      <g transform="translate(3.6 31.284412) scale(0.07 -0.07)">
       <defs>
        <path id="NimbusSanL-Regu-38" d="M 2502 2399 
C 2970 2680 3123 2910 3123 3338 
C 3123 4046 2566 4544 1760 4544 
C 960 4544 397 4046 397 3338 
C 397 2917 550 2687 1011 2399 
C 493 2150 237 1774 237 1276 
C 237 446 864 -128 1760 -128 
C 2656 -128 3283 447 3283 1270 
C 3283 1774 3027 2150 2502 2399 
z
M 1760 4044 
C 2240 4044 2547 3764 2547 3325 
C 2547 2904 2234 2624 1760 2624 
C 1286 2624 973 2904 973 3331 
C 973 3764 1286 4044 1760 4044 
z
M 1760 2149 
C 2323 2149 2707 1792 2707 1263 
C 2707 729 2323 372 1747 372 
C 1197 372 813 735 813 1263 
C 813 1792 1197 2149 1760 2149 
z
" transform="scale(0.015625)"/>
       </defs>
       <use xlink:href="#NimbusSanL-Regu-30" transform="scale(0.996264)"/>
       <use xlink:href="#NimbusSanL-Regu-2e" transform="translate(55.391677 0) scale(0.996264)"/>
       <use xlink:href="#NimbusSanL-Regu-38" transform="translate(83.086847 0) scale(0.996264)"/>
      </g>
     </g>
    </g>
    <g id="ytick_6">
     <g id="line2d_41">
      <g>
       <use xlink:href="#m65c17b7edf" x="16.793477" y="8.64" style="stroke: #000000; stroke-width: 0.5"/>
      </g>
     </g>
     <g id="line2d_42">
      <g>
       <use xlink:href="#mbf82a04faf" x="184.193477" y="8.64" style="stroke: #000000; stroke-width: 0.5"/>
      </g>
     </g>
     <g id="text_9">
      <!-- $\mathdefault{1.0}$ -->
      <g transform="translate(3.6 11.124412) scale(0.07 -0.07)">
       <defs>
        <path id="NimbusSanL-Regu-31" d="M 1658 3238 
L 1658 0 
L 2221 0 
L 2221 4545 
L 1850 4545 
C 1651 3847 1523 3751 653 3642 
L 653 3238 
L 1658 3238 
z
" transform="scale(0.015625)"/>
       </defs>
       <use xlink:href="#NimbusSanL-Regu-31" transform="scale(0.996264)"/>
       <use xlink:href="#NimbusSanL-Regu-2e" transform="translate(55.391677 0) scale(0.996264)"/>
       <use xlink:href="#NimbusSanL-Regu-30" transform="translate(83.086847 0) scale(0.996264)"/>
      </g>
     </g>
    </g>
    <g id="ytick_7">
     <g id="line2d_43">
      <defs>
       <path id="mc99e801028" d="M 0 0 
L 1.5 0 
" style="stroke: #000000; stroke-width: 0.5"/>
      </defs>
      <g>
       <use xlink:href="#mc99e801028" x="16.793477" y="114.48" style="stroke: #000000; stroke-width: 0.5"/>
      </g>
     </g>
     <g id="line2d_44">
      <defs>
       <path id="mdd6ea0c759" d="M 0 0 
L -1.5 0 
" style="stroke: #000000; stroke-width: 0.5"/>
      </defs>
      <g>
       <use xlink:href="#mdd6ea0c759" x="184.193477" y="114.48" style="stroke: #000000; stroke-width: 0.5"/>
      </g>
     </g>
    </g>
    <g id="ytick_8">
     <g id="line2d_45">
      <g>
       <use xlink:href="#mc99e801028" x="16.793477" y="104.4" style="stroke: #000000; stroke-width: 0.5"/>
      </g>
     </g>
     <g id="line2d_46">
      <g>
       <use xlink:href="#mdd6ea0c759" x="184.193477" y="104.4" style="stroke: #000000; stroke-width: 0.5"/>
      </g>
     </g>
    </g>
    <g id="ytick_9">
     <g id="line2d_47">
      <g>
       <use xlink:href="#mc99e801028" x="16.793477" y="99.36" style="stroke: #000000; stroke-width: 0.5"/>
      </g>
     </g>
     <g id="line2d_48">
      <g>
       <use xlink:href="#mdd6ea0c759" x="184.193477" y="99.36" style="stroke: #000000; stroke-width: 0.5"/>
      </g>
     </g>
    </g>
    <g id="ytick_10">
     <g id="line2d_49">
      <g>
       <use xlink:href="#mc99e801028" x="16.793477" y="94.32" style="stroke: #000000; stroke-width: 0.5"/>
      </g>
     </g>
     <g id="line2d_50">
      <g>
       <use xlink:href="#mdd6ea0c759" x="184.193477" y="94.32" style="stroke: #000000; stroke-width: 0.5"/>
      </g>
     </g>
    </g>
    <g id="ytick_11">
     <g id="line2d_51">
      <g>
       <use xlink:href="#mc99e801028" x="16.793477" y="84.24" style="stroke: #000000; stroke-width: 0.5"/>
      </g>
     </g>
     <g id="line2d_52">
      <g>
       <use xlink:href="#mdd6ea0c759" x="184.193477" y="84.24" style="stroke: #000000; stroke-width: 0.5"/>
      </g>
     </g>
    </g>
    <g id="ytick_12">
     <g id="line2d_53">
      <g>
       <use xlink:href="#mc99e801028" x="16.793477" y="79.2" style="stroke: #000000; stroke-width: 0.5"/>
      </g>
     </g>
     <g id="line2d_54">
      <g>
       <use xlink:href="#mdd6ea0c759" x="184.193477" y="79.2" style="stroke: #000000; stroke-width: 0.5"/>
      </g>
     </g>
    </g>
    <g id="ytick_13">
     <g id="line2d_55">
      <g>
       <use xlink:href="#mc99e801028" x="16.793477" y="74.16" style="stroke: #000000; stroke-width: 0.5"/>
      </g>
     </g>
     <g id="line2d_56">
      <g>
       <use xlink:href="#mdd6ea0c759" x="184.193477" y="74.16" style="stroke: #000000; stroke-width: 0.5"/>
      </g>
     </g>
    </g>
    <g id="ytick_14">
     <g id="line2d_57">
      <g>
       <use xlink:href="#mc99e801028" x="16.793477" y="64.08" style="stroke: #000000; stroke-width: 0.5"/>
      </g>
     </g>
     <g id="line2d_58">
      <g>
       <use xlink:href="#mdd6ea0c759" x="184.193477" y="64.08" style="stroke: #000000; stroke-width: 0.5"/>
      </g>
     </g>
    </g>
    <g id="ytick_15">
     <g id="line2d_59">
      <g>
       <use xlink:href="#mc99e801028" x="16.793477" y="59.04" style="stroke: #000000; stroke-width: 0.5"/>
      </g>
     </g>
     <g id="line2d_60">
      <g>
       <use xlink:href="#mdd6ea0c759" x="184.193477" y="59.04" style="stroke: #000000; stroke-width: 0.5"/>
      </g>
     </g>
    </g>
    <g id="ytick_16">
     <g id="line2d_61">
      <g>
       <use xlink:href="#mc99e801028" x="16.793477" y="54" style="stroke: #000000; stroke-width: 0.5"/>
      </g>
     </g>
     <g id="line2d_62">
      <g>
       <use xlink:href="#mdd6ea0c759" x="184.193477" y="54" style="stroke: #000000; stroke-width: 0.5"/>
      </g>
     </g>
    </g>
    <g id="ytick_17">
     <g id="line2d_63">
      <g>
       <use xlink:href="#mc99e801028" x="16.793477" y="43.92" style="stroke: #000000; stroke-width: 0.5"/>
      </g>
     </g>
     <g id="line2d_64">
      <g>
       <use xlink:href="#mdd6ea0c759" x="184.193477" y="43.92" style="stroke: #000000; stroke-width: 0.5"/>
      </g>
     </g>
    </g>
    <g id="ytick_18">
     <g id="line2d_65">
      <g>
       <use xlink:href="#mc99e801028" x="16.793477" y="38.88" style="stroke: #000000; stroke-width: 0.5"/>
      </g>
     </g>
     <g id="line2d_66">
      <g>
       <use xlink:href="#mdd6ea0c759" x="184.193477" y="38.88" style="stroke: #000000; stroke-width: 0.5"/>
      </g>
     </g>
    </g>
    <g id="ytick_19">
     <g id="line2d_67">
      <g>
       <use xlink:href="#mc99e801028" x="16.793477" y="33.84" style="stroke: #000000; stroke-width: 0.5"/>
      </g>
     </g>
     <g id="line2d_68">
      <g>
       <use xlink:href="#mdd6ea0c759" x="184.193477" y="33.84" style="stroke: #000000; stroke-width: 0.5"/>
      </g>
     </g>
    </g>
    <g id="ytick_20">
     <g id="line2d_69">
      <g>
       <use xlink:href="#mc99e801028" x="16.793477" y="23.76" style="stroke: #000000; stroke-width: 0.5"/>
      </g>
     </g>
     <g id="line2d_70">
      <g>
       <use xlink:href="#mdd6ea0c759" x="184.193477" y="23.76" style="stroke: #000000; stroke-width: 0.5"/>
      </g>
     </g>
    </g>
    <g id="ytick_21">
     <g id="line2d_71">
      <g>
       <use xlink:href="#mc99e801028" x="16.793477" y="18.72" style="stroke: #000000; stroke-width: 0.5"/>
      </g>
     </g>
     <g id="line2d_72">
      <g>
       <use xlink:href="#mdd6ea0c759" x="184.193477" y="18.72" style="stroke: #000000; stroke-width: 0.5"/>
      </g>
     </g>
    </g>
    <g id="ytick_22">
     <g id="line2d_73">
      <g>
       <use xlink:href="#mc99e801028" x="16.793477" y="13.68" style="stroke: #000000; stroke-width: 0.5"/>
      </g>
     </g>
     <g id="line2d_74">
      <g>
       <use xlink:href="#mdd6ea0c759" x="184.193477" y="13.68" style="stroke: #000000; stroke-width: 0.5"/>
      </g>
     </g>
    </g>
    <g id="ytick_23">
     <g id="line2d_75">
      <g>
       <use xlink:href="#mc99e801028" x="16.793477" y="3.6" style="stroke: #000000; stroke-width: 0.5"/>
      </g>
     </g>
     <g id="line2d_76">
      <g>
       <use xlink:href="#mdd6ea0c759" x="184.193477" y="3.6" style="stroke: #000000; stroke-width: 0.5"/>
      </g>
     </g>
    </g>
   </g>
   <g id="line2d_77">
    <path d="M 24.402568 109.44 
L 144.379493 109.44 
L 144.501251 8.64 
L 176.584386 8.64 
L 176.584386 8.64 
" clip-path="url(#p59b208819a)" style="fill: none; stroke: #1f77b4; stroke-opacity: 0.4; stroke-linecap: square"/>
   </g>
   <g id="line2d_78">
    <path d="M 24.402568 109.44 
L 142.416151 109.44 
L 142.537909 8.64 
L 176.584386 8.64 
L 176.584386 8.64 
" clip-path="url(#p59b208819a)" style="fill: none; stroke: #1f77b4; stroke-opacity: 0.4; stroke-linecap: square"/>
   </g>
   <g id="line2d_79">
    <path d="M 24.402568 109.44 
L 144.638228 109.44 
L 144.759986 8.64 
L 176.584386 8.64 
L 176.584386 8.64 
" clip-path="url(#p59b208819a)" style="fill: none; stroke: #1f77b4; stroke-opacity: 0.4; stroke-linecap: square"/>
   </g>
   <g id="line2d_80">
    <path d="M 24.402568 109.44 
L 144.516471 109.44 
L 144.638228 8.64 
L 176.584386 8.64 
L 176.584386 8.64 
" clip-path="url(#p59b208819a)" style="fill: none; stroke: #1f77b4; stroke-opacity: 0.4; stroke-linecap: square"/>
   </g>
   <g id="line2d_81">
    <path d="M 24.402568 109.44 
L 142.827083 109.44 
L 142.948841 8.64 
L 176.584386 8.64 
L 176.584386 8.64 
" clip-path="url(#p59b208819a)" style="fill: none; stroke: #1f77b4; stroke-opacity: 0.4; stroke-linecap: square"/>
   </g>
   <g id="line2d_82">
    <path d="M 24.402568 109.44 
L 142.416151 109.44 
L 142.537909 8.64 
L 176.584386 8.64 
L 176.584386 8.64 
" clip-path="url(#p59b208819a)" style="fill: none; stroke: #1f77b4; stroke-opacity: 0.4; stroke-linecap: square"/>
   </g>
   <g id="line2d_83">
    <path d="M 24.402568 109.44 
L 144.105539 109.44 
L 144.227296 8.64 
L 176.584386 8.64 
L 176.584386 8.64 
" clip-path="url(#p59b208819a)" style="fill: none; stroke: #1f77b4; stroke-opacity: 0.4; stroke-linecap: square"/>
   </g>
   <g id="line2d_84">
    <path d="M 24.402568 109.44 
L 144.790425 109.44 
L 144.912183 8.64 
L 176.584386 8.64 
L 176.584386 8.64 
" clip-path="url(#p59b208819a)" style="fill: none; stroke: #1f77b4; stroke-opacity: 0.4; stroke-linecap: square"/>
   </g>
   <g id="line2d_85">
    <path d="M 24.402568 109.44 
L 143.816364 109.44 
L 143.938122 8.64 
L 176.584386 8.64 
L 176.584386 8.64 
" clip-path="url(#p59b208819a)" style="fill: none; stroke: #1f77b4; stroke-opacity: 0.4; stroke-linecap: square"/>
   </g>
   <g id="line2d_86">
    <path d="M 24.402568 109.44 
L 142.705326 109.44 
L 142.827083 8.64 
L 176.584386 8.64 
L 176.584386 8.64 
" clip-path="url(#p59b208819a)" style="fill: none; stroke: #1f77b4; stroke-opacity: 0.4; stroke-linecap: square"/>
   </g>
   <g id="line2d_87">
    <path d="M 24.402568 109.44 
L 144.02944 109.44 
L 144.151198 8.64 
L 176.584386 8.64 
L 176.584386 8.64 
" clip-path="url(#p59b208819a)" style="fill: none; stroke: #1f77b4; stroke-opacity: 0.4; stroke-linecap: square"/>
   </g>
   <g id="line2d_88">
    <path d="M 24.402568 109.44 
L 144.075099 109.44 
L 144.196857 8.64 
L 176.584386 8.64 
L 176.584386 8.64 
" clip-path="url(#p59b208819a)" style="fill: none; stroke: #1f77b4; stroke-opacity: 0.4; stroke-linecap: square"/>
   </g>
   <g id="line2d_89">
    <path d="M 24.402568 109.44 
L 144.364274 109.44 
L 144.486031 8.64 
L 176.584386 8.64 
L 176.584386 8.64 
" clip-path="url(#p59b208819a)" style="fill: none; stroke: #1f77b4; stroke-opacity: 0.4; stroke-linecap: square"/>
   </g>
   <g id="line2d_90">
    <path d="M 24.402568 109.44 
L 144.166417 109.44 
L 144.288175 8.64 
L 176.584386 8.64 
L 176.584386 8.64 
" clip-path="url(#p59b208819a)" style="fill: none; stroke: #1f77b4; stroke-opacity: 0.4; stroke-linecap: square"/>
   </g>
   <g id="line2d_91">
    <path d="M 24.402568 109.44 
L 143.00972 109.44 
L 143.131478 8.64 
L 176.584386 8.64 
L 176.584386 8.64 
" clip-path="url(#p59b208819a)" style="fill: none; stroke: #1f77b4; stroke-opacity: 0.4; stroke-linecap: square"/>
   </g>
   <g id="line2d_92">
    <path d="M 24.402568 109.44 
L 142.872743 109.44 
L 142.9945 8.64 
L 176.584386 8.64 
L 176.584386 8.64 
" clip-path="url(#p59b208819a)" style="fill: none; stroke: #1f77b4; stroke-opacity: 0.4; stroke-linecap: square"/>
   </g>
   <g id="line2d_93">
    <path d="M 24.402568 109.44 
L 143.54241 109.44 
L 143.664167 8.64 
L 176.584386 8.64 
L 176.584386 8.64 
" clip-path="url(#p59b208819a)" style="fill: none; stroke: #1f77b4; stroke-opacity: 0.4; stroke-linecap: square"/>
   </g>
   <g id="line2d_94">
    <path d="M 24.402568 109.44 
L 143.953342 109.44 
L 144.075099 8.64 
L 176.584386 8.64 
L 176.584386 8.64 
" clip-path="url(#p59b208819a)" style="fill: none; stroke: #1f77b4; stroke-opacity: 0.4; stroke-linecap: square"/>
   </g>
   <g id="line2d_95">
    <path d="M 24.402568 109.44 
L 143.298894 109.44 
L 143.420652 8.64 
L 176.584386 8.64 
L 176.584386 8.64 
" clip-path="url(#p59b208819a)" style="fill: none; stroke: #1f77b4; stroke-opacity: 0.4; stroke-linecap: square"/>
   </g>
   <g id="line2d_96">
    <path d="M 24.402568 109.44 
L 145.155698 109.44 
L 145.277456 8.64 
L 176.584386 8.64 
L 176.584386 8.64 
" clip-path="url(#p59b208819a)" style="fill: none; stroke: #1f77b4; stroke-opacity: 0.4; stroke-linecap: square"/>
   </g>
   <g id="line2d_97">
    <path d="M 24.402568 109.44 
L 144.364274 109.44 
L 144.486031 8.64 
L 176.584386 8.64 
L 176.584386 8.64 
" clip-path="url(#p59b208819a)" style="fill: none; stroke: #1f77b4; stroke-opacity: 0.4; stroke-linecap: square"/>
   </g>
   <g id="line2d_98">
    <path d="M 24.402568 109.44 
L 144.896963 109.44 
L 145.018721 8.64 
L 176.584386 8.64 
L 176.584386 8.64 
" clip-path="url(#p59b208819a)" style="fill: none; stroke: #1f77b4; stroke-opacity: 0.4; stroke-linecap: square"/>
   </g>
   <g id="line2d_99">
    <path d="M 24.402568 109.44 
L 144.623008 109.44 
L 144.744766 8.64 
L 176.584386 8.64 
L 176.584386 8.64 
" clip-path="url(#p59b208819a)" style="fill: none; stroke: #1f77b4; stroke-opacity: 0.4; stroke-linecap: square"/>
   </g>
   <g id="line2d_100">
    <path d="M 24.402568 109.44 
L 145.59707 109.44 
L 145.718827 8.64 
L 176.584386 8.64 
L 176.584386 8.64 
" clip-path="url(#p59b208819a)" style="fill: none; stroke: #1f77b4; stroke-opacity: 0.4; stroke-linecap: square"/>
   </g>
   <g id="line2d_101">
    <path d="M 24.402568 109.44 
L 144.56213 109.44 
L 144.683887 8.64 
L 176.584386 8.64 
L 176.584386 8.64 
" clip-path="url(#p59b208819a)" style="fill: none; stroke: #1f77b4; stroke-opacity: 0.4; stroke-linecap: square"/>
   </g>
   <g id="line2d_102">
    <path d="M 24.402568 109.44 
L 145.003501 109.44 
L 145.125259 8.64 
L 176.584386 8.64 
L 176.584386 8.64 
" clip-path="url(#p59b208819a)" style="fill: none; stroke: #1f77b4; stroke-opacity: 0.4; stroke-linecap: square"/>
   </g>
   <g id="line2d_103">
    <path d="M 24.402568 109.44 
L 144.912183 109.44 
L 145.03394 8.64 
L 176.584386 8.64 
L 176.584386 8.64 
" clip-path="url(#p59b208819a)" style="fill: none; stroke: #1f77b4; stroke-opacity: 0.4; stroke-linecap: square"/>
   </g>
   <g id="line2d_104">
    <path d="M 24.402568 109.44 
L 143.451091 109.44 
L 143.572849 8.64 
L 176.584386 8.64 
L 176.584386 8.64 
" clip-path="url(#p59b208819a)" style="fill: none; stroke: #1f77b4; stroke-opacity: 0.4; stroke-linecap: square"/>
   </g>
   <g id="line2d_105">
    <path d="M 24.402568 109.44 
L 144.151198 109.44 
L 144.272955 8.64 
L 176.584386 8.64 
L 176.584386 8.64 
" clip-path="url(#p59b208819a)" style="fill: none; stroke: #1f77b4; stroke-opacity: 0.4; stroke-linecap: square"/>
   </g>
   <g id="line2d_106">
    <path d="M 24.402568 109.44 
L 143.922902 109.44 
L 144.04466 8.64 
L 176.584386 8.64 
L 176.584386 8.64 
" clip-path="url(#p59b208819a)" style="fill: none; stroke: #1f77b4; stroke-opacity: 0.4; stroke-linecap: square"/>
   </g>
   <g id="line2d_107">
    <path d="M 24.402568 109.44 
L 143.420652 109.44 
L 143.54241 8.64 
L 176.584386 8.64 
L 176.584386 8.64 
" clip-path="url(#p59b208819a)" style="fill: none; stroke: #1f77b4; stroke-opacity: 0.4; stroke-linecap: square"/>
   </g>
   <g id="line2d_108">
    <path d="M 24.402568 109.44 
L 144.242516 109.44 
L 144.364274 8.64 
L 176.584386 8.64 
L 176.584386 8.64 
" clip-path="url(#p59b208819a)" style="fill: none; stroke: #1f77b4; stroke-opacity: 0.4; stroke-linecap: square"/>
   </g>
   <g id="line2d_109">
    <path d="M 24.402568 109.44 
L 144.455592 109.44 
L 144.577349 8.64 
L 176.584386 8.64 
L 176.584386 8.64 
" clip-path="url(#p59b208819a)" style="fill: none; stroke: #1f77b4; stroke-opacity: 0.4; stroke-linecap: square"/>
   </g>
   <g id="line2d_110">
    <path d="M 24.402568 109.44 
L 144.516471 109.44 
L 144.638228 8.64 
L 176.584386 8.64 
L 176.584386 8.64 
" clip-path="url(#p59b208819a)" style="fill: none; stroke: #1f77b4; stroke-opacity: 0.4; stroke-linecap: square"/>
   </g>
   <g id="line2d_111">
    <path d="M 24.402568 109.44 
L 143.040159 109.44 
L 143.161917 8.64 
L 176.584386 8.64 
L 176.584386 8.64 
" clip-path="url(#p59b208819a)" style="fill: none; stroke: #1f77b4; stroke-opacity: 0.4; stroke-linecap: square"/>
   </g>
   <g id="line2d_112">
    <path d="M 24.402568 109.44 
L 142.47703 109.44 
L 142.598788 8.64 
L 176.584386 8.64 
L 176.584386 8.64 
" clip-path="url(#p59b208819a)" style="fill: none; stroke: #1f77b4; stroke-opacity: 0.4; stroke-linecap: square"/>
   </g>
   <g id="line2d_113">
    <path d="M 24.402568 109.44 
L 142.47703 109.44 
L 142.598788 8.64 
L 176.584386 8.64 
L 176.584386 8.64 
" clip-path="url(#p59b208819a)" style="fill: none; stroke: #1f77b4; stroke-opacity: 0.4; stroke-linecap: square"/>
   </g>
   <g id="line2d_114">
    <path d="M 24.402568 109.44 
L 144.957842 109.44 
L 145.0796 8.64 
L 176.584386 8.64 
L 176.584386 8.64 
" clip-path="url(#p59b208819a)" style="fill: none; stroke: #1f77b4; stroke-opacity: 0.4; stroke-linecap: square"/>
   </g>
   <g id="line2d_115">
    <path d="M 24.402568 109.44 
L 145.627509 109.44 
L 145.749267 8.64 
L 176.584386 8.64 
L 176.584386 8.64 
" clip-path="url(#p59b208819a)" style="fill: none; stroke: #1f77b4; stroke-opacity: 0.4; stroke-linecap: square"/>
   </g>
   <g id="line2d_116">
    <path d="M 24.402568 109.44 
L 143.101038 109.44 
L 143.222796 8.64 
L 176.584386 8.64 
L 176.584386 8.64 
" clip-path="url(#p59b208819a)" style="fill: none; stroke: #1f77b4; stroke-opacity: 0.4; stroke-linecap: square"/>
   </g>
   <g id="line2d_117">
    <path d="M 24.402568 109.44 
L 143.329334 109.44 
L 143.451091 8.64 
L 176.584386 8.64 
L 176.584386 8.64 
" clip-path="url(#p59b208819a)" style="fill: none; stroke: #1f77b4; stroke-opacity: 0.4; stroke-linecap: square"/>
   </g>
   <g id="line2d_118">
    <path d="M 24.402568 109.44 
L 143.999001 109.44 
L 144.120758 8.64 
L 176.584386 8.64 
L 176.584386 8.64 
" clip-path="url(#p59b208819a)" style="fill: none; stroke: #1f77b4; stroke-opacity: 0.4; stroke-linecap: square"/>
   </g>
   <g id="line2d_119">
    <path d="M 24.402568 109.44 
L 143.085818 109.44 
L 143.207576 8.64 
L 176.584386 8.64 
L 176.584386 8.64 
" clip-path="url(#p59b208819a)" style="fill: none; stroke: #1f77b4; stroke-opacity: 0.4; stroke-linecap: square"/>
   </g>
   <g id="line2d_120">
    <path d="M 24.402568 109.44 
L 143.51197 109.44 
L 143.633728 8.64 
L 176.584386 8.64 
L 176.584386 8.64 
" clip-path="url(#p59b208819a)" style="fill: none; stroke: #1f77b4; stroke-opacity: 0.4; stroke-linecap: square"/>
   </g>
   <g id="line2d_121">
    <path d="M 24.402568 109.44 
L 143.02494 109.44 
L 143.146697 8.64 
L 176.584386 8.64 
L 176.584386 8.64 
" clip-path="url(#p59b208819a)" style="fill: none; stroke: #1f77b4; stroke-opacity: 0.4; stroke-linecap: square"/>
   </g>
   <g id="line2d_122">
    <path d="M 24.402568 109.44 
L 143.161917 109.44 
L 143.283675 8.64 
L 176.584386 8.64 
L 176.584386 8.64 
" clip-path="url(#p59b208819a)" style="fill: none; stroke: #1f77b4; stroke-opacity: 0.4; stroke-linecap: square"/>
   </g>
   <g id="line2d_123">
    <path d="M 24.402568 109.44 
L 145.490532 109.44 
L 145.612289 8.64 
L 176.584386 8.64 
L 176.584386 8.64 
" clip-path="url(#p59b208819a)" style="fill: none; stroke: #1f77b4; stroke-opacity: 0.4; stroke-linecap: square"/>
   </g>
   <g id="line2d_124">
    <path d="M 24.402568 109.44 
L 142.948841 109.44 
L 143.070599 8.64 
L 176.584386 8.64 
L 176.584386 8.64 
" clip-path="url(#p59b208819a)" style="fill: none; stroke: #1f77b4; stroke-opacity: 0.4; stroke-linecap: square"/>
   </g>
   <g id="line2d_125">
    <path d="M 24.402568 109.44 
L 146.160199 109.44 
L 146.281956 8.64 
L 176.584386 8.64 
L 176.584386 8.64 
" clip-path="url(#p59b208819a)" style="fill: none; stroke: #1f77b4; stroke-opacity: 0.4; stroke-linecap: square"/>
   </g>
   <g id="line2d_126">
    <path d="M 24.402568 109.44 
L 143.49675 109.44 
L 143.618508 8.64 
L 176.584386 8.64 
L 176.584386 8.64 
" clip-path="url(#p59b208819a)" style="fill: none; stroke: #1f77b4; stroke-opacity: 0.4; stroke-linecap: square"/>
   </g>
   <g id="line2d_127">
    <path d="M 24.402568 109.44 
L 55.67906 109.44 
L 55.800817 8.64 
L 176.584386 8.64 
L 176.584386 8.64 
" clip-path="url(#p59b208819a)" style="fill: none; stroke: #d62728; stroke-opacity: 0.4; stroke-linecap: square"/>
   </g>
   <g id="line2d_128">
    <path d="M 24.402568 109.44 
L 56.972734 109.44 
L 57.094492 8.64 
L 176.584386 8.64 
L 176.584386 8.64 
" clip-path="url(#p59b208819a)" style="fill: none; stroke: #d62728; stroke-opacity: 0.4; stroke-linecap: square"/>
   </g>
   <g id="line2d_129">
    <path d="M 24.402568 109.44 
L 57.18581 109.44 
L 57.307568 8.64 
L 176.584386 8.64 
L 176.584386 8.64 
" clip-path="url(#p59b208819a)" style="fill: none; stroke: #d62728; stroke-opacity: 0.4; stroke-linecap: square"/>
   </g>
   <g id="line2d_130">
    <path d="M 24.402568 109.44 
L 57.003174 109.44 
L 57.124931 8.64 
L 176.584386 8.64 
L 176.584386 8.64 
" clip-path="url(#p59b208819a)" style="fill: none; stroke: #d62728; stroke-opacity: 0.4; stroke-linecap: square"/>
   </g>
   <g id="line2d_131">
    <path d="M 24.402568 109.44 
L 56.713999 109.44 
L 56.835757 8.64 
L 176.584386 8.64 
L 176.584386 8.64 
" clip-path="url(#p59b208819a)" style="fill: none; stroke: #d62728; stroke-opacity: 0.4; stroke-linecap: square"/>
   </g>
   <g id="line2d_132">
    <path d="M 24.402568 109.44 
L 56.607461 109.44 
L 56.729219 8.64 
L 176.584386 8.64 
L 176.584386 8.64 
" clip-path="url(#p59b208819a)" style="fill: none; stroke: #d62728; stroke-opacity: 0.4; stroke-linecap: square"/>
   </g>
   <g id="line2d_133">
    <path d="M 24.402568 109.44 
L 59.301349 109.44 
L 59.423107 8.64 
L 176.584386 8.64 
L 176.584386 8.64 
" clip-path="url(#p59b208819a)" style="fill: none; stroke: #d62728; stroke-opacity: 0.4; stroke-linecap: square"/>
   </g>
   <g id="line2d_134">
    <path d="M 24.402568 109.44 
L 57.855477 109.44 
L 57.977235 8.64 
L 176.584386 8.64 
L 176.584386 8.64 
" clip-path="url(#p59b208819a)" style="fill: none; stroke: #d62728; stroke-opacity: 0.4; stroke-linecap: square"/>
   </g>
   <g id="line2d_135">
    <path d="M 24.402568 109.44 
L 55.816037 109.44 
L 55.937794 8.64 
L 176.584386 8.64 
L 176.584386 8.64 
" clip-path="url(#p59b208819a)" style="fill: none; stroke: #d62728; stroke-opacity: 0.4; stroke-linecap: square"/>
   </g>
   <g id="line2d_136">
    <path d="M 24.402568 109.44 
L 56.105211 109.44 
L 56.226969 8.64 
L 176.584386 8.64 
L 176.584386 8.64 
" clip-path="url(#p59b208819a)" style="fill: none; stroke: #d62728; stroke-opacity: 0.4; stroke-linecap: square"/>
   </g>
   <g id="line2d_137">
    <path d="M 24.402568 109.44 
L 55.420325 109.44 
L 55.542082 8.64 
L 176.584386 8.64 
L 176.584386 8.64 
" clip-path="url(#p59b208819a)" style="fill: none; stroke: #d62728; stroke-opacity: 0.4; stroke-linecap: square"/>
   </g>
   <g id="line2d_138">
    <path d="M 24.402568 109.44 
L 56.485704 109.44 
L 56.607461 8.64 
L 176.584386 8.64 
L 176.584386 8.64 
" clip-path="url(#p59b208819a)" style="fill: none; stroke: #d62728; stroke-opacity: 0.4; stroke-linecap: square"/>
   </g>
   <g id="line2d_139">
    <path d="M 24.402568 109.44 
L 57.170591 109.44 
L 57.292348 8.64 
L 176.584386 8.64 
L 176.584386 8.64 
" clip-path="url(#p59b208819a)" style="fill: none; stroke: #d62728; stroke-opacity: 0.4; stroke-linecap: square"/>
   </g>
   <g id="line2d_140">
    <path d="M 24.402568 109.44 
L 58.083773 109.44 
L 58.20553 8.64 
L 176.584386 8.64 
L 176.584386 8.64 
" clip-path="url(#p59b208819a)" style="fill: none; stroke: #d62728; stroke-opacity: 0.4; stroke-linecap: square"/>
   </g>
   <g id="line2d_141">
    <path d="M 24.402568 109.44 
L 58.114212 109.44 
L 58.23597 8.64 
L 176.584386 8.64 
L 176.584386 8.64 
" clip-path="url(#p59b208819a)" style="fill: none; stroke: #d62728; stroke-opacity: 0.4; stroke-linecap: square"/>
   </g>
   <g id="line2d_142">
    <path d="M 24.402568 109.44 
L 57.292348 109.44 
L 57.414106 8.64 
L 176.584386 8.64 
L 176.584386 8.64 
" clip-path="url(#p59b208819a)" style="fill: none; stroke: #d62728; stroke-opacity: 0.4; stroke-linecap: square"/>
   </g>
   <g id="line2d_143">
    <path d="M 24.402568 109.44 
L 55.694279 109.44 
L 55.816037 8.64 
L 176.584386 8.64 
L 176.584386 8.64 
" clip-path="url(#p59b208819a)" style="fill: none; stroke: #d62728; stroke-opacity: 0.4; stroke-linecap: square"/>
   </g>
   <g id="line2d_144">
    <path d="M 24.402568 109.44 
L 56.531363 109.44 
L 56.653121 8.64 
L 176.584386 8.64 
L 176.584386 8.64 
" clip-path="url(#p59b208819a)" style="fill: none; stroke: #d62728; stroke-opacity: 0.4; stroke-linecap: square"/>
   </g>
   <g id="line2d_145">
    <path d="M 24.402568 109.44 
L 56.972734 109.44 
L 57.094492 8.64 
L 176.584386 8.64 
L 176.584386 8.64 
" clip-path="url(#p59b208819a)" style="fill: none; stroke: #d62728; stroke-opacity: 0.4; stroke-linecap: square"/>
   </g>
   <g id="line2d_146">
    <path d="M 24.402568 109.44 
L 56.911856 109.44 
L 57.033613 8.64 
L 176.584386 8.64 
L 176.584386 8.64 
" clip-path="url(#p59b208819a)" style="fill: none; stroke: #d62728; stroke-opacity: 0.4; stroke-linecap: square"/>
   </g>
   <g id="line2d_147">
    <path d="M 24.402568 109.44 
L 57.246689 109.44 
L 57.368447 8.64 
L 176.584386 8.64 
L 176.584386 8.64 
" clip-path="url(#p59b208819a)" style="fill: none; stroke: #d62728; stroke-opacity: 0.4; stroke-linecap: square"/>
   </g>
   <g id="line2d_148">
    <path d="M 24.402568 109.44 
L 57.962015 109.44 
L 58.083773 8.64 
L 176.584386 8.64 
L 176.584386 8.64 
" clip-path="url(#p59b208819a)" style="fill: none; stroke: #d62728; stroke-opacity: 0.4; stroke-linecap: square"/>
   </g>
   <g id="line2d_149">
    <path d="M 24.402568 109.44 
L 58.449046 109.44 
L 58.570803 8.64 
L 176.584386 8.64 
L 176.584386 8.64 
" clip-path="url(#p59b208819a)" style="fill: none; stroke: #d62728; stroke-opacity: 0.4; stroke-linecap: square"/>
   </g>
   <g id="line2d_150">
    <path d="M 24.402568 109.44 
L 57.21625 109.44 
L 57.338007 8.64 
L 176.584386 8.64 
L 176.584386 8.64 
" clip-path="url(#p59b208819a)" style="fill: none; stroke: #d62728; stroke-opacity: 0.4; stroke-linecap: square"/>
   </g>
   <g id="line2d_151">
    <path d="M 24.402568 109.44 
L 57.474985 109.44 
L 57.596742 8.64 
L 176.584386 8.64 
L 176.584386 8.64 
" clip-path="url(#p59b208819a)" style="fill: none; stroke: #d62728; stroke-opacity: 0.4; stroke-linecap: square"/>
   </g>
   <g id="line2d_152">
    <path d="M 24.402568 109.44 
L 57.261909 109.44 
L 57.383666 8.64 
L 176.584386 8.64 
L 176.584386 8.64 
" clip-path="url(#p59b208819a)" style="fill: none; stroke: #d62728; stroke-opacity: 0.4; stroke-linecap: square"/>
   </g>
   <g id="line2d_153">
    <path d="M 24.402568 109.44 
L 56.379166 109.44 
L 56.500924 8.64 
L 176.584386 8.64 
L 176.584386 8.64 
" clip-path="url(#p59b208819a)" style="fill: none; stroke: #d62728; stroke-opacity: 0.4; stroke-linecap: square"/>
   </g>
   <g id="line2d_154">
    <path d="M 24.402568 109.44 
L 57.322788 109.44 
L 57.444545 8.64 
L 176.584386 8.64 
L 176.584386 8.64 
" clip-path="url(#p59b208819a)" style="fill: none; stroke: #d62728; stroke-opacity: 0.4; stroke-linecap: square"/>
   </g>
   <g id="line2d_155">
    <path d="M 24.402568 109.44 
L 57.155371 109.44 
L 57.277128 8.64 
L 176.584386 8.64 
L 176.584386 8.64 
" clip-path="url(#p59b208819a)" style="fill: none; stroke: #d62728; stroke-opacity: 0.4; stroke-linecap: square"/>
   </g>
   <g id="line2d_156">
    <path d="M 24.402568 109.44 
L 57.885917 109.44 
L 58.007674 8.64 
L 176.584386 8.64 
L 176.584386 8.64 
" clip-path="url(#p59b208819a)" style="fill: none; stroke: #d62728; stroke-opacity: 0.4; stroke-linecap: square"/>
   </g>
   <g id="line2d_157">
    <path d="M 24.402568 109.44 
L 55.770378 109.44 
L 55.892135 8.64 
L 176.584386 8.64 
L 176.584386 8.64 
" clip-path="url(#p59b208819a)" style="fill: none; stroke: #d62728; stroke-opacity: 0.4; stroke-linecap: square"/>
   </g>
   <g id="line2d_158">
    <path d="M 24.402568 109.44 
L 54.781097 109.44 
L 54.902855 8.64 
L 176.584386 8.64 
L 176.584386 8.64 
" clip-path="url(#p59b208819a)" style="fill: none; stroke: #d62728; stroke-opacity: 0.4; stroke-linecap: square"/>
   </g>
   <g id="line2d_159">
    <path d="M 24.402568 109.44 
L 57.459765 109.44 
L 57.581523 8.64 
L 176.584386 8.64 
L 176.584386 8.64 
" clip-path="url(#p59b208819a)" style="fill: none; stroke: #d62728; stroke-opacity: 0.4; stroke-linecap: square"/>
   </g>
   <g id="line2d_160">
    <path d="M 24.402568 109.44 
L 54.933294 109.44 
L 55.055052 8.64 
L 176.584386 8.64 
L 176.584386 8.64 
" clip-path="url(#p59b208819a)" style="fill: none; stroke: #d62728; stroke-opacity: 0.4; stroke-linecap: square"/>
   </g>
   <g id="line2d_161">
    <path d="M 24.402568 109.44 
L 56.211749 109.44 
L 56.333507 8.64 
L 176.584386 8.64 
L 176.584386 8.64 
" clip-path="url(#p59b208819a)" style="fill: none; stroke: #d62728; stroke-opacity: 0.4; stroke-linecap: square"/>
   </g>
   <g id="line2d_162">
    <path d="M 24.402568 109.44 
L 57.505424 109.44 
L 57.627182 8.64 
L 176.584386 8.64 
L 176.584386 8.64 
" clip-path="url(#p59b208819a)" style="fill: none; stroke: #d62728; stroke-opacity: 0.4; stroke-linecap: square"/>
   </g>
   <g id="line2d_163">
    <path d="M 24.402568 109.44 
L 56.592242 109.44 
L 56.713999 8.64 
L 176.584386 8.64 
L 176.584386 8.64 
" clip-path="url(#p59b208819a)" style="fill: none; stroke: #d62728; stroke-opacity: 0.4; stroke-linecap: square"/>
   </g>
   <g id="line2d_164">
    <path d="M 24.402568 109.44 
L 55.694279 109.44 
L 55.816037 8.64 
L 176.584386 8.64 
L 176.584386 8.64 
" clip-path="url(#p59b208819a)" style="fill: none; stroke: #d62728; stroke-opacity: 0.4; stroke-linecap: square"/>
   </g>
   <g id="line2d_165">
    <path d="M 24.402568 109.44 
L 56.866196 109.44 
L 56.987954 8.64 
L 176.584386 8.64 
L 176.584386 8.64 
" clip-path="url(#p59b208819a)" style="fill: none; stroke: #d62728; stroke-opacity: 0.4; stroke-linecap: square"/>
   </g>
   <g id="line2d_166">
    <path d="M 24.402568 109.44 
L 58.631682 109.44 
L 58.75344 8.64 
L 176.584386 8.64 
L 176.584386 8.64 
" clip-path="url(#p59b208819a)" style="fill: none; stroke: #d62728; stroke-opacity: 0.4; stroke-linecap: square"/>
   </g>
   <g id="line2d_167">
    <path d="M 24.402568 109.44 
L 57.505424 109.44 
L 57.627182 8.64 
L 176.584386 8.64 
L 176.584386 8.64 
" clip-path="url(#p59b208819a)" style="fill: none; stroke: #d62728; stroke-opacity: 0.4; stroke-linecap: square"/>
   </g>
   <g id="line2d_168">
    <path d="M 24.402568 109.44 
L 57.916356 109.44 
L 58.038114 8.64 
L 176.584386 8.64 
L 176.584386 8.64 
" clip-path="url(#p59b208819a)" style="fill: none; stroke: #d62728; stroke-opacity: 0.4; stroke-linecap: square"/>
   </g>
   <g id="line2d_169">
    <path d="M 24.402568 109.44 
L 57.794598 109.44 
L 57.916356 8.64 
L 176.584386 8.64 
L 176.584386 8.64 
" clip-path="url(#p59b208819a)" style="fill: none; stroke: #d62728; stroke-opacity: 0.4; stroke-linecap: square"/>
   </g>
   <g id="line2d_170">
    <path d="M 24.402568 109.44 
L 55.755158 109.44 
L 55.876916 8.64 
L 176.584386 8.64 
L 176.584386 8.64 
" clip-path="url(#p59b208819a)" style="fill: none; stroke: #d62728; stroke-opacity: 0.4; stroke-linecap: square"/>
   </g>
   <g id="line2d_171">
    <path d="M 24.402568 109.44 
L 57.261909 109.44 
L 57.383666 8.64 
L 176.584386 8.64 
L 176.584386 8.64 
" clip-path="url(#p59b208819a)" style="fill: none; stroke: #d62728; stroke-opacity: 0.4; stroke-linecap: square"/>
   </g>
   <g id="line2d_172">
    <path d="M 24.402568 109.44 
L 56.622681 109.44 
L 56.744439 8.64 
L 176.584386 8.64 
L 176.584386 8.64 
" clip-path="url(#p59b208819a)" style="fill: none; stroke: #d62728; stroke-opacity: 0.4; stroke-linecap: square"/>
   </g>
   <g id="line2d_173">
    <path d="M 24.402568 109.44 
L 57.322788 109.44 
L 57.444545 8.64 
L 176.584386 8.64 
L 176.584386 8.64 
" clip-path="url(#p59b208819a)" style="fill: none; stroke: #d62728; stroke-opacity: 0.4; stroke-linecap: square"/>
   </g>
   <g id="line2d_174">
    <path d="M 24.402568 109.44 
L 57.079272 109.44 
L 57.20103 8.64 
L 176.584386 8.64 
L 176.584386 8.64 
" clip-path="url(#p59b208819a)" style="fill: none; stroke: #d62728; stroke-opacity: 0.4; stroke-linecap: square"/>
   </g>
   <g id="line2d_175">
    <path d="M 24.402568 109.44 
L 57.353227 109.44 
L 57.474985 8.64 
L 176.584386 8.64 
L 176.584386 8.64 
" clip-path="url(#p59b208819a)" style="fill: none; stroke: #d62728; stroke-opacity: 0.4; stroke-linecap: square"/>
   </g>
   <g id="line2d_176">
    <path d="M 24.402568 109.44 
L 55.937794 109.44 
L 56.059552 8.64 
L 176.584386 8.64 
L 176.584386 8.64 
" clip-path="url(#p59b208819a)" style="fill: none; stroke: #d62728; stroke-opacity: 0.4; stroke-linecap: square"/>
   </g>
   <g id="patch_3">
    <path d="M 16.793477 114.48 
L 16.793477 3.6 
" style="fill: none; stroke: #000000; stroke-width: 0.5; stroke-linejoin: miter; stroke-linecap: square"/>
   </g>
   <g id="patch_4">
    <path d="M 184.193477 114.48 
L 184.193477 3.6 
" style="fill: none; stroke: #000000; stroke-width: 0.5; stroke-linejoin: miter; stroke-linecap: square"/>
   </g>
   <g id="patch_5">
    <path d="M 16.793477 114.48 
L 184.193477 114.48 
" style="fill: none; stroke: #000000; stroke-width: 0.5; stroke-linejoin: miter; stroke-linecap: square"/>
   </g>
   <g id="patch_6">
    <path d="M 16.793477 3.6 
L 184.193477 3.6 
" style="fill: none; stroke: #000000; stroke-width: 0.5; stroke-linejoin: miter; stroke-linecap: square"/>
   </g>
  </g>
 </g>
 <defs>
  <clipPath id="p59b208819a">
   <rect x="16.793477" y="3.6" width="167.4" height="110.88"/>
  </clipPath>
 </defs>
</svg>
