<?xml version="1.0" encoding="utf-8" standalone="no"?>
<!DOCTYPE svg PUBLIC "-//W3C//DTD SVG 1.1//EN"
  "http://www.w3.org/Graphics/SVG/1.1/DTD/svg11.dtd">
<svg xmlns:xlink="http://www.w3.org/1999/xlink" width="204.474348pt" height="138.617459pt" viewBox="0 0 204.474348 138.617459" xmlns="http://www.w3.org/2000/svg" version="1.1">
 <metadata>
  <rdf:RDF xmlns:dc="http://purl.org/dc/elements/1.1/" xmlns:cc="http://creativecommons.org/ns#" xmlns:rdf="http://www.w3.org/1999/02/22-rdf-syntax-ns#">
   <cc:Work>
    <dc:type rdf:resource="http://purl.org/dc/dcmitype/StillImage"/>
    <dc:date>2025-11-25T12:38:10.992902</dc:date>
    <dc:format>image/svg+xml</dc:format>
    <dc:creator>
     <cc:Agent>
      <dc:title>Matplotlib v3.9.4, https://matplotlib.org/</dc:title>
     </cc:Agent>
    </dc:creator>
   </cc:Work>
  </rdf:RDF>
 </metadata>
 <defs>
  <style type="text/css">*{stroke-linejoin: round; stroke-linecap: butt}</style>
 </defs>
 <g id="figure_1">
  <g id="patch_1">
   <path d="M 0 138.617459 
L 204.474348 138.617459 
L 204.474348 0 
L 0 0 
z
" style="fill: #ffffff"/>
  </g>
  <g id="axes_1">
   <g id="patch_2">
    <path d="M 33.474348 114.48 
L 200.874348 114.48 
L 200.874348 3.6 
L 33.474348 3.6 
z
" style="fill: #ffffff"/>
   </g>
   <g id="matplotlib.axis_1">
    <g id="xtick_1">
     <g id="line2d_1">
      <defs>
       <path id="m6ab5cf222a" d="M 0 0 
L 0 -3 
" style="stroke: #000000; stroke-width: 0.5"/>
      </defs>
      <g>
       <use xlink:href="#m6ab5cf222a" x="41.083439" y="114.48" style="stroke: #000000; stroke-width: 0.5"/>
      </g>
     </g>
     <g id="line2d_2">
      <defs>
       <path id="ma35f8e245d" d="M 0 0 
L 0 3 
" style="stroke: #000000; stroke-width: 0.5"/>
      </defs>
      <g>
       <use xlink:href="#ma35f8e245d" x="41.083439" y="3.6" style="stroke: #000000; stroke-width: 0.5"/>
      </g>
     </g>
     <g id="text_1">
      <!-- $\mathdefault{0}$ -->
      <g transform="translate(39.144733 122.948824) scale(0.07 -0.07)">
       <defs>
        <path id="NimbusSanL-Regu-30" d="M 1760 4544 
C 1338 4544 954 4360 717 4046 
C 422 3651 275 3044 275 2208 
C 275 683 787 -128 1760 -128 
C 2720 -128 3245 683 3245 2170 
C 3245 3050 3104 3638 2803 4046 
C 2566 4366 2189 4544 1760 4544 
z
M 1760 4044 
C 2368 4044 2669 3432 2669 2221 
C 2669 939 2374 340 1747 340 
C 1152 340 851 965 851 2202 
C 851 3438 1152 4044 1760 4044 
z
" transform="scale(0.015625)"/>
       </defs>
       <use xlink:href="#NimbusSanL-Regu-30" transform="scale(0.996264)"/>
      </g>
     </g>
    </g>
    <g id="xtick_2">
     <g id="line2d_3">
      <g>
       <use xlink:href="#m6ab5cf222a" x="71.827241" y="114.48" style="stroke: #000000; stroke-width: 0.5"/>
      </g>
     </g>
     <g id="line2d_4">
      <g>
       <use xlink:href="#ma35f8e245d" x="71.827241" y="3.6" style="stroke: #000000; stroke-width: 0.5"/>
      </g>
     </g>
     <g id="text_2">
      <!-- $\mathdefault{2}$ -->
      <g transform="translate(69.888535 122.948824) scale(0.07 -0.07)">
       <defs>
        <path id="NimbusSanL-Regu-32" d="M 3238 558 
L 851 558 
C 909 930 1114 1167 1670 1494 
L 2310 1840 
C 2944 2186 3270 2653 3270 3211 
C 3270 3589 3117 3942 2848 4185 
C 2579 4429 2246 4544 1818 4544 
C 1242 4544 813 4339 563 3955 
C 403 3711 333 3429 320 2967 
L 883 2967 
C 902 3275 941 3461 1018 3608 
C 1165 3884 1459 4051 1798 4051 
C 2310 4051 2694 3685 2694 3198 
C 2694 2839 2483 2531 2080 2301 
L 1491 1968 
C 544 1430 269 1000 218 0 
L 3238 0 
L 3238 558 
z
" transform="scale(0.015625)"/>
       </defs>
       <use xlink:href="#NimbusSanL-Regu-32" transform="scale(0.996264)"/>
      </g>
     </g>
    </g>
    <g id="xtick_3">
     <g id="line2d_5">
      <g>
       <use xlink:href="#m6ab5cf222a" x="102.571042" y="114.48" style="stroke: #000000; stroke-width: 0.5"/>
      </g>
     </g>
     <g id="line2d_6">
      <g>
       <use xlink:href="#ma35f8e245d" x="102.571042" y="3.6" style="stroke: #000000; stroke-width: 0.5"/>
      </g>
     </g>
     <g id="text_3">
      <!-- $\mathdefault{4}$ -->
      <g transform="translate(100.632336 122.948824) scale(0.07 -0.07)">
       <defs>
        <path id="NimbusSanL-Regu-34" d="M 2093 1088 
L 2093 0 
L 2656 0 
L 2656 1088 
L 3328 1088 
L 3328 1594 
L 2656 1594 
L 2656 4545 
L 2240 4545 
L 179 1684 
L 179 1088 
L 2093 1088 
z
M 2093 1594 
L 672 1594 
L 2093 3583 
L 2093 1594 
z
" transform="scale(0.015625)"/>
       </defs>
       <use xlink:href="#NimbusSanL-Regu-34" transform="scale(0.996264)"/>
      </g>
     </g>
    </g>
    <g id="xtick_4">
     <g id="line2d_7">
      <g>
       <use xlink:href="#m6ab5cf222a" x="133.314844" y="114.48" style="stroke: #000000; stroke-width: 0.5"/>
      </g>
     </g>
     <g id="line2d_8">
      <g>
       <use xlink:href="#ma35f8e245d" x="133.314844" y="3.6" style="stroke: #000000; stroke-width: 0.5"/>
      </g>
     </g>
     <g id="text_4">
      <!-- $\mathdefault{6}$ -->
      <g transform="translate(131.376138 122.948824) scale(0.07 -0.07)">
       <defs>
        <path id="NimbusSanL-Regu-36" d="M 3187 3382 
C 3078 4111 2592 4544 1901 4544 
C 1402 4544 954 4302 685 3900 
C 403 3460 275 2904 275 2081 
C 275 1321 390 836 659 434 
C 902 69 1299 -128 1798 -128 
C 2662 -128 3283 518 3283 1415 
C 3283 2268 2707 2868 1894 2868 
C 1446 2868 1094 2695 851 2362 
C 858 3444 1216 4044 1862 4044 
C 2259 4044 2534 3803 2624 3382 
L 3187 3382 
z
M 1824 2368 
C 2368 2368 2707 1986 2707 1370 
C 2707 793 2323 372 1805 372 
C 1280 372 883 813 883 1402 
C 883 1973 1267 2368 1824 2368 
z
" transform="scale(0.015625)"/>
       </defs>
       <use xlink:href="#NimbusSanL-Regu-36" transform="scale(0.996264)"/>
      </g>
     </g>
    </g>
    <g id="xtick_5">
     <g id="line2d_9">
      <g>
       <use xlink:href="#m6ab5cf222a" x="164.058646" y="114.48" style="stroke: #000000; stroke-width: 0.5"/>
      </g>
     </g>
     <g id="line2d_10">
      <g>
       <use xlink:href="#ma35f8e245d" x="164.058646" y="3.6" style="stroke: #000000; stroke-width: 0.5"/>
      </g>
     </g>
     <g id="text_5">
      <!-- $\mathdefault{8}$ -->
      <g transform="translate(162.11994 122.948824) scale(0.07 -0.07)">
       <defs>
        <path id="NimbusSanL-Regu-38" d="M 2502 2399 
C 2970 2680 3123 2910 3123 3338 
C 3123 4046 2566 4544 1760 4544 
C 960 4544 397 4046 397 3338 
C 397 2917 550 2687 1011 2399 
C 493 2150 237 1774 237 1276 
C 237 446 864 -128 1760 -128 
C 2656 -128 3283 447 3283 1270 
C 3283 1774 3027 2150 2502 2399 
z
M 1760 4044 
C 2240 4044 2547 3764 2547 3325 
C 2547 2904 2234 2624 1760 2624 
C 1286 2624 973 2904 973 3331 
C 973 3764 1286 4044 1760 4044 
z
M 1760 2149 
C 2323 2149 2707 1792 2707 1263 
C 2707 729 2323 372 1747 372 
C 1197 372 813 735 813 1263 
C 813 1792 1197 2149 1760 2149 
z
" transform="scale(0.015625)"/>
       </defs>
       <use xlink:href="#NimbusSanL-Regu-38" transform="scale(0.996264)"/>
      </g>
     </g>
    </g>
    <g id="xtick_6">
     <g id="line2d_11">
      <g>
       <use xlink:href="#m6ab5cf222a" x="194.802447" y="114.48" style="stroke: #000000; stroke-width: 0.5"/>
      </g>
     </g>
     <g id="line2d_12">
      <g>
       <use xlink:href="#ma35f8e245d" x="194.802447" y="3.6" style="stroke: #000000; stroke-width: 0.5"/>
      </g>
     </g>
     <g id="text_6">
      <!-- $\mathdefault{10}$ -->
      <g transform="translate(190.925035 122.948824) scale(0.07 -0.07)">
       <defs>
        <path id="NimbusSanL-Regu-31" d="M 1658 3238 
L 1658 0 
L 2221 0 
L 2221 4545 
L 1850 4545 
C 1651 3847 1523 3751 653 3642 
L 653 3238 
L 1658 3238 
z
" transform="scale(0.015625)"/>
       </defs>
       <use xlink:href="#NimbusSanL-Regu-31" transform="scale(0.996264)"/>
       <use xlink:href="#NimbusSanL-Regu-30" transform="translate(55.391677 0) scale(0.996264)"/>
      </g>
     </g>
    </g>
    <g id="xtick_7">
     <g id="line2d_13">
      <defs>
       <path id="m09575d5545" d="M 0 0 
L 0 -1.5 
" style="stroke: #000000; stroke-width: 0.5"/>
      </defs>
      <g>
       <use xlink:href="#m09575d5545" x="48.769389" y="114.48" style="stroke: #000000; stroke-width: 0.5"/>
      </g>
     </g>
     <g id="line2d_14">
      <defs>
       <path id="m9a6fc57092" d="M 0 0 
L 0 1.5 
" style="stroke: #000000; stroke-width: 0.5"/>
      </defs>
      <g>
       <use xlink:href="#m9a6fc57092" x="48.769389" y="3.6" style="stroke: #000000; stroke-width: 0.5"/>
      </g>
     </g>
    </g>
    <g id="xtick_8">
     <g id="line2d_15">
      <g>
       <use xlink:href="#m09575d5545" x="56.45534" y="114.48" style="stroke: #000000; stroke-width: 0.5"/>
      </g>
     </g>
     <g id="line2d_16">
      <g>
       <use xlink:href="#m9a6fc57092" x="56.45534" y="3.6" style="stroke: #000000; stroke-width: 0.5"/>
      </g>
     </g>
    </g>
    <g id="xtick_9">
     <g id="line2d_17">
      <g>
       <use xlink:href="#m09575d5545" x="64.14129" y="114.48" style="stroke: #000000; stroke-width: 0.5"/>
      </g>
     </g>
     <g id="line2d_18">
      <g>
       <use xlink:href="#m9a6fc57092" x="64.14129" y="3.6" style="stroke: #000000; stroke-width: 0.5"/>
      </g>
     </g>
    </g>
    <g id="xtick_10">
     <g id="line2d_19">
      <g>
       <use xlink:href="#m09575d5545" x="79.513191" y="114.48" style="stroke: #000000; stroke-width: 0.5"/>
      </g>
     </g>
     <g id="line2d_20">
      <g>
       <use xlink:href="#m9a6fc57092" x="79.513191" y="3.6" style="stroke: #000000; stroke-width: 0.5"/>
      </g>
     </g>
    </g>
    <g id="xtick_11">
     <g id="line2d_21">
      <g>
       <use xlink:href="#m09575d5545" x="87.199142" y="114.48" style="stroke: #000000; stroke-width: 0.5"/>
      </g>
     </g>
     <g id="line2d_22">
      <g>
       <use xlink:href="#m9a6fc57092" x="87.199142" y="3.6" style="stroke: #000000; stroke-width: 0.5"/>
      </g>
     </g>
    </g>
    <g id="xtick_12">
     <g id="line2d_23">
      <g>
       <use xlink:href="#m09575d5545" x="94.885092" y="114.48" style="stroke: #000000; stroke-width: 0.5"/>
      </g>
     </g>
     <g id="line2d_24">
      <g>
       <use xlink:href="#m9a6fc57092" x="94.885092" y="3.6" style="stroke: #000000; stroke-width: 0.5"/>
      </g>
     </g>
    </g>
    <g id="xtick_13">
     <g id="line2d_25">
      <g>
       <use xlink:href="#m09575d5545" x="110.256993" y="114.48" style="stroke: #000000; stroke-width: 0.5"/>
      </g>
     </g>
     <g id="line2d_26">
      <g>
       <use xlink:href="#m9a6fc57092" x="110.256993" y="3.6" style="stroke: #000000; stroke-width: 0.5"/>
      </g>
     </g>
    </g>
    <g id="xtick_14">
     <g id="line2d_27">
      <g>
       <use xlink:href="#m09575d5545" x="117.942943" y="114.48" style="stroke: #000000; stroke-width: 0.5"/>
      </g>
     </g>
     <g id="line2d_28">
      <g>
       <use xlink:href="#m9a6fc57092" x="117.942943" y="3.6" style="stroke: #000000; stroke-width: 0.5"/>
      </g>
     </g>
    </g>
    <g id="xtick_15">
     <g id="line2d_29">
      <g>
       <use xlink:href="#m09575d5545" x="125.628894" y="114.48" style="stroke: #000000; stroke-width: 0.5"/>
      </g>
     </g>
     <g id="line2d_30">
      <g>
       <use xlink:href="#m9a6fc57092" x="125.628894" y="3.6" style="stroke: #000000; stroke-width: 0.5"/>
      </g>
     </g>
    </g>
    <g id="xtick_16">
     <g id="line2d_31">
      <g>
       <use xlink:href="#m09575d5545" x="141.000794" y="114.48" style="stroke: #000000; stroke-width: 0.5"/>
      </g>
     </g>
     <g id="line2d_32">
      <g>
       <use xlink:href="#m9a6fc57092" x="141.000794" y="3.6" style="stroke: #000000; stroke-width: 0.5"/>
      </g>
     </g>
    </g>
    <g id="xtick_17">
     <g id="line2d_33">
      <g>
       <use xlink:href="#m09575d5545" x="148.686745" y="114.48" style="stroke: #000000; stroke-width: 0.5"/>
      </g>
     </g>
     <g id="line2d_34">
      <g>
       <use xlink:href="#m9a6fc57092" x="148.686745" y="3.6" style="stroke: #000000; stroke-width: 0.5"/>
      </g>
     </g>
    </g>
    <g id="xtick_18">
     <g id="line2d_35">
      <g>
       <use xlink:href="#m09575d5545" x="156.372695" y="114.48" style="stroke: #000000; stroke-width: 0.5"/>
      </g>
     </g>
     <g id="line2d_36">
      <g>
       <use xlink:href="#m9a6fc57092" x="156.372695" y="3.6" style="stroke: #000000; stroke-width: 0.5"/>
      </g>
     </g>
    </g>
    <g id="xtick_19">
     <g id="line2d_37">
      <g>
       <use xlink:href="#m09575d5545" x="171.744596" y="114.48" style="stroke: #000000; stroke-width: 0.5"/>
      </g>
     </g>
     <g id="line2d_38">
      <g>
       <use xlink:href="#m9a6fc57092" x="171.744596" y="3.6" style="stroke: #000000; stroke-width: 0.5"/>
      </g>
     </g>
    </g>
    <g id="xtick_20">
     <g id="line2d_39">
      <g>
       <use xlink:href="#m09575d5545" x="179.430546" y="114.48" style="stroke: #000000; stroke-width: 0.5"/>
      </g>
     </g>
     <g id="line2d_40">
      <g>
       <use xlink:href="#m9a6fc57092" x="179.430546" y="3.6" style="stroke: #000000; stroke-width: 0.5"/>
      </g>
     </g>
    </g>
    <g id="xtick_21">
     <g id="line2d_41">
      <g>
       <use xlink:href="#m09575d5545" x="187.116497" y="114.48" style="stroke: #000000; stroke-width: 0.5"/>
      </g>
     </g>
     <g id="line2d_42">
      <g>
       <use xlink:href="#m9a6fc57092" x="187.116497" y="3.6" style="stroke: #000000; stroke-width: 0.5"/>
      </g>
     </g>
    </g>
    <g id="text_7">
     <!-- Time (ns) -->
     <g transform="translate(102.452714 133.532078) scale(0.07 -0.07)">
      <defs>
       <path id="NimbusSanL-Regu-54" d="M 2266 4146 
L 3795 4146 
L 3795 4672 
L 134 4672 
L 134 4146 
L 1670 4146 
L 1670 -14 
L 2266 -14 
L 2266 4146 
z
" transform="scale(0.015625)"/>
       <path id="NimbusSanL-Regu-69" d="M 960 3359 
L 429 3359 
L 429 0 
L 960 0 
L 960 3359 
z
M 960 4672 
L 422 4672 
L 422 3999 
L 960 3999 
L 960 4672 
z
" transform="scale(0.015625)"/>
       <path id="NimbusSanL-Regu-6d" d="M 448 3359 
L 448 0 
L 986 0 
L 986 2109 
C 986 2597 1338 2988 1773 2988 
C 2170 2988 2394 2744 2394 2314 
L 2394 0 
L 2931 0 
L 2931 2109 
C 2931 2597 3283 2988 3718 2988 
C 4109 2988 4339 2738 4339 2314 
L 4339 0 
L 4877 0 
L 4877 2520 
C 4877 3122 4531 3456 3904 3456 
C 3456 3456 3187 3321 2874 2943 
C 2675 3302 2406 3456 1971 3456 
C 1523 3456 1229 3289 941 2885 
L 941 3359 
L 448 3359 
z
" transform="scale(0.015625)"/>
       <path id="NimbusSanL-Regu-65" d="M 3283 1529 
C 3283 2034 3245 2338 3149 2584 
C 2931 3127 2419 3456 1792 3456 
C 858 3456 256 2742 256 1645 
C 256 547 838 -128 1779 -128 
C 2547 -128 3078 310 3213 1044 
L 2675 1044 
C 2528 598 2227 365 1798 365 
C 1459 365 1171 520 992 805 
C 864 998 819 1193 813 1529 
L 3283 1529 
z
M 826 1984 
C 870 2577 1248 2962 1786 2962 
C 2310 2962 2714 2530 2714 1984 
C 2714 1984 2714 1984 2707 1984 
L 826 1984 
z
" transform="scale(0.015625)"/>
       <path id="NimbusSanL-Regu-28" d="M 1510 4672 
C 870 3830 467 2660 467 1651 
C 467 636 870 -534 1510 -1376 
L 1862 -1376 
C 1299 -457 986 623 986 1651 
C 986 2673 1299 3759 1862 4672 
L 1510 4672 
z
" transform="scale(0.015625)"/>
       <path id="NimbusSanL-Regu-6e" d="M 448 3359 
L 448 0 
L 986 0 
L 986 1853 
C 986 2539 1344 2988 1894 2988 
C 2317 2988 2586 2731 2586 2327 
L 2586 0 
L 3117 0 
L 3117 2539 
C 3117 3097 2701 3456 2054 3456 
C 1555 3456 1235 3263 941 2796 
L 941 3359 
L 448 3359 
z
" transform="scale(0.015625)"/>
       <path id="NimbusSanL-Regu-73" d="M 2803 2427 
C 2797 3085 2362 3456 1587 3456 
C 806 3456 301 3054 301 2436 
C 301 1913 570 1665 1363 1474 
L 1862 1353 
C 2234 1263 2381 1130 2381 888 
C 2381 576 2067 365 1600 365 
C 1312 365 1069 448 934 588 
C 851 684 813 779 781 1014 
L 218 1014 
C 243 241 678 -128 1555 -128 
C 2400 -128 2938 285 2938 929 
C 2938 1426 2656 1701 1990 1860 
L 1478 1981 
C 1043 2082 858 2223 858 2458 
C 858 2764 1133 2962 1568 2962 
C 1997 2962 2227 2777 2240 2427 
L 2803 2427 
z
" transform="scale(0.015625)"/>
       <path id="NimbusSanL-Regu-29" d="M 595 -1376 
C 1235 -534 1638 636 1638 1644 
C 1638 2660 1235 3830 595 4672 
L 243 4672 
C 806 3753 1120 2673 1120 1644 
C 1120 623 806 -464 243 -1376 
L 595 -1376 
z
" transform="scale(0.015625)"/>
      </defs>
      <use xlink:href="#NimbusSanL-Regu-54" transform="scale(0.996264)"/>
      <use xlink:href="#NimbusSanL-Regu-69" transform="translate(60.871631 0) scale(0.996264)"/>
      <use xlink:href="#NimbusSanL-Regu-6d" transform="translate(82.988415 0) scale(0.996264)"/>
      <use xlink:href="#NimbusSanL-Regu-65" transform="translate(165.976845 0) scale(0.996264)"/>
      <use xlink:href="#NimbusSanL-Regu-28" transform="translate(249.063692 0) scale(0.996264)"/>
      <use xlink:href="#NimbusSanL-Regu-6e" transform="translate(282.238922 0) scale(0.996264)"/>
      <use xlink:href="#NimbusSanL-Regu-73" transform="translate(337.630599 0) scale(0.996264)"/>
      <use xlink:href="#NimbusSanL-Regu-29" transform="translate(387.443799 0) scale(0.996264)"/>
     </g>
    </g>
   </g>
   <g id="matplotlib.axis_2">
    <g id="ytick_1">
     <g id="line2d_43">
      <defs>
       <path id="m39ba44707c" d="M 0 0 
L 3 0 
" style="stroke: #000000; stroke-width: 0.5"/>
      </defs>
      <g>
       <use xlink:href="#m39ba44707c" x="33.474348" y="109.44" style="stroke: #000000; stroke-width: 0.5"/>
      </g>
     </g>
     <g id="line2d_44">
      <defs>
       <path id="m7075e3a662" d="M 0 0 
L -3 0 
" style="stroke: #000000; stroke-width: 0.5"/>
      </defs>
      <g>
       <use xlink:href="#m7075e3a662" x="200.874348" y="109.44" style="stroke: #000000; stroke-width: 0.5"/>
      </g>
     </g>
     <g id="text_8">
      <!-- $\mathdefault{−1.0}$ -->
      <g transform="translate(14.054206 111.924412) scale(0.07 -0.07)">
       <defs>
        <path id="CMSY10-0" d="M 4218 1472 
C 4326 1472 4442 1472 4442 1600 
C 4442 1728 4326 1728 4218 1728 
L 755 1728 
C 646 1728 531 1728 531 1600 
C 531 1472 646 1472 755 1472 
L 4218 1472 
z
" transform="scale(0.015625)"/>
        <path id="NimbusSanL-Regu-2e" d="M 1222 667 
L 557 667 
L 557 0 
L 1222 0 
L 1222 667 
z
" transform="scale(0.015625)"/>
       </defs>
       <use xlink:href="#CMSY10-0" transform="scale(0.996264)"/>
       <use xlink:href="#NimbusSanL-Regu-31" transform="translate(77.487468 0) scale(0.996264)"/>
       <use xlink:href="#NimbusSanL-Regu-2e" transform="translate(132.879145 0) scale(0.996264)"/>
       <use xlink:href="#NimbusSanL-Regu-30" transform="translate(160.574314 0) scale(0.996264)"/>
      </g>
     </g>
    </g>
    <g id="ytick_2">
     <g id="line2d_45">
      <g>
       <use xlink:href="#m39ba44707c" x="33.474348" y="83.859094" style="stroke: #000000; stroke-width: 0.5"/>
      </g>
     </g>
     <g id="line2d_46">
      <g>
       <use xlink:href="#m7075e3a662" x="200.874348" y="83.859094" style="stroke: #000000; stroke-width: 0.5"/>
      </g>
     </g>
     <g id="text_9">
      <!-- $\mathdefault{−0.5}$ -->
      <g transform="translate(14.054206 86.343506) scale(0.07 -0.07)">
       <defs>
        <path id="NimbusSanL-Regu-35" d="M 3046 4544 
L 704 4544 
L 365 2086 
L 883 2086 
C 1146 2399 1363 2508 1715 2508 
C 2323 2508 2707 2092 2707 1421 
C 2707 768 2330 372 1715 372 
C 1222 372 922 621 787 1133 
L 224 1133 
C 301 762 365 582 499 415 
C 755 70 1216 -128 1728 -128 
C 2643 -128 3283 537 3283 1497 
C 3283 2394 2688 3008 1818 3008 
C 1498 3008 1242 2925 979 2732 
L 1158 3987 
L 3046 3987 
L 3046 4544 
z
" transform="scale(0.015625)"/>
       </defs>
       <use xlink:href="#CMSY10-0" transform="scale(0.996264)"/>
       <use xlink:href="#NimbusSanL-Regu-30" transform="translate(77.487468 0) scale(0.996264)"/>
       <use xlink:href="#NimbusSanL-Regu-2e" transform="translate(132.879145 0) scale(0.996264)"/>
       <use xlink:href="#NimbusSanL-Regu-35" transform="translate(160.574314 0) scale(0.996264)"/>
      </g>
     </g>
    </g>
    <g id="ytick_3">
     <g id="line2d_47">
      <g>
       <use xlink:href="#m39ba44707c" x="33.474348" y="58.278188" style="stroke: #000000; stroke-width: 0.5"/>
      </g>
     </g>
     <g id="line2d_48">
      <g>
       <use xlink:href="#m7075e3a662" x="200.874348" y="58.278188" style="stroke: #000000; stroke-width: 0.5"/>
      </g>
     </g>
     <g id="text_10">
      <!-- $\mathdefault{0.0}$ -->
      <g transform="translate(20.280871 60.7626) scale(0.07 -0.07)">
       <use xlink:href="#NimbusSanL-Regu-30" transform="scale(0.996264)"/>
       <use xlink:href="#NimbusSanL-Regu-2e" transform="translate(55.391677 0) scale(0.996264)"/>
       <use xlink:href="#NimbusSanL-Regu-30" transform="translate(83.086847 0) scale(0.996264)"/>
      </g>
     </g>
    </g>
    <g id="ytick_4">
     <g id="line2d_49">
      <g>
       <use xlink:href="#m39ba44707c" x="33.474348" y="32.697281" style="stroke: #000000; stroke-width: 0.5"/>
      </g>
     </g>
     <g id="line2d_50">
      <g>
       <use xlink:href="#m7075e3a662" x="200.874348" y="32.697281" style="stroke: #000000; stroke-width: 0.5"/>
      </g>
     </g>
     <g id="text_11">
      <!-- $\mathdefault{0.5}$ -->
      <g transform="translate(20.280871 35.181694) scale(0.07 -0.07)">
       <use xlink:href="#NimbusSanL-Regu-30" transform="scale(0.996264)"/>
       <use xlink:href="#NimbusSanL-Regu-2e" transform="translate(55.391677 0) scale(0.996264)"/>
       <use xlink:href="#NimbusSanL-Regu-35" transform="translate(83.086847 0) scale(0.996264)"/>
      </g>
     </g>
    </g>
    <g id="ytick_5">
     <g id="line2d_51">
      <g>
       <use xlink:href="#m39ba44707c" x="33.474348" y="7.116375" style="stroke: #000000; stroke-width: 0.5"/>
      </g>
     </g>
     <g id="line2d_52">
      <g>
       <use xlink:href="#m7075e3a662" x="200.874348" y="7.116375" style="stroke: #000000; stroke-width: 0.5"/>
      </g>
     </g>
     <g id="text_12">
      <!-- $\mathdefault{1.0}$ -->
      <g transform="translate(20.280871 9.600787) scale(0.07 -0.07)">
       <use xlink:href="#NimbusSanL-Regu-31" transform="scale(0.996264)"/>
       <use xlink:href="#NimbusSanL-Regu-2e" transform="translate(55.391677 0) scale(0.996264)"/>
       <use xlink:href="#NimbusSanL-Regu-30" transform="translate(83.086847 0) scale(0.996264)"/>
      </g>
     </g>
    </g>
    <g id="ytick_6">
     <g id="line2d_53">
      <defs>
       <path id="m7ae425cc07" d="M 0 0 
L 1.5 0 
" style="stroke: #000000; stroke-width: 0.5"/>
      </defs>
      <g>
       <use xlink:href="#m7ae425cc07" x="33.474348" y="104.323819" style="stroke: #000000; stroke-width: 0.5"/>
      </g>
     </g>
     <g id="line2d_54">
      <defs>
       <path id="m0c47f1b5dc" d="M 0 0 
L -1.5 0 
" style="stroke: #000000; stroke-width: 0.5"/>
      </defs>
      <g>
       <use xlink:href="#m0c47f1b5dc" x="200.874348" y="104.323819" style="stroke: #000000; stroke-width: 0.5"/>
      </g>
     </g>
    </g>
    <g id="ytick_7">
     <g id="line2d_55">
      <g>
       <use xlink:href="#m7ae425cc07" x="33.474348" y="99.207638" style="stroke: #000000; stroke-width: 0.5"/>
      </g>
     </g>
     <g id="line2d_56">
      <g>
       <use xlink:href="#m0c47f1b5dc" x="200.874348" y="99.207638" style="stroke: #000000; stroke-width: 0.5"/>
      </g>
     </g>
    </g>
    <g id="ytick_8">
     <g id="line2d_57">
      <g>
       <use xlink:href="#m7ae425cc07" x="33.474348" y="94.091456" style="stroke: #000000; stroke-width: 0.5"/>
      </g>
     </g>
     <g id="line2d_58">
      <g>
       <use xlink:href="#m0c47f1b5dc" x="200.874348" y="94.091456" style="stroke: #000000; stroke-width: 0.5"/>
      </g>
     </g>
    </g>
    <g id="ytick_9">
     <g id="line2d_59">
      <g>
       <use xlink:href="#m7ae425cc07" x="33.474348" y="88.975275" style="stroke: #000000; stroke-width: 0.5"/>
      </g>
     </g>
     <g id="line2d_60">
      <g>
       <use xlink:href="#m0c47f1b5dc" x="200.874348" y="88.975275" style="stroke: #000000; stroke-width: 0.5"/>
      </g>
     </g>
    </g>
    <g id="ytick_10">
     <g id="line2d_61">
      <g>
       <use xlink:href="#m7ae425cc07" x="33.474348" y="78.742913" style="stroke: #000000; stroke-width: 0.5"/>
      </g>
     </g>
     <g id="line2d_62">
      <g>
       <use xlink:href="#m0c47f1b5dc" x="200.874348" y="78.742913" style="stroke: #000000; stroke-width: 0.5"/>
      </g>
     </g>
    </g>
    <g id="ytick_11">
     <g id="line2d_63">
      <g>
       <use xlink:href="#m7ae425cc07" x="33.474348" y="73.626731" style="stroke: #000000; stroke-width: 0.5"/>
      </g>
     </g>
     <g id="line2d_64">
      <g>
       <use xlink:href="#m0c47f1b5dc" x="200.874348" y="73.626731" style="stroke: #000000; stroke-width: 0.5"/>
      </g>
     </g>
    </g>
    <g id="ytick_12">
     <g id="line2d_65">
      <g>
       <use xlink:href="#m7ae425cc07" x="33.474348" y="68.51055" style="stroke: #000000; stroke-width: 0.5"/>
      </g>
     </g>
     <g id="line2d_66">
      <g>
       <use xlink:href="#m0c47f1b5dc" x="200.874348" y="68.51055" style="stroke: #000000; stroke-width: 0.5"/>
      </g>
     </g>
    </g>
    <g id="ytick_13">
     <g id="line2d_67">
      <g>
       <use xlink:href="#m7ae425cc07" x="33.474348" y="63.394369" style="stroke: #000000; stroke-width: 0.5"/>
      </g>
     </g>
     <g id="line2d_68">
      <g>
       <use xlink:href="#m0c47f1b5dc" x="200.874348" y="63.394369" style="stroke: #000000; stroke-width: 0.5"/>
      </g>
     </g>
    </g>
    <g id="ytick_14">
     <g id="line2d_69">
      <g>
       <use xlink:href="#m7ae425cc07" x="33.474348" y="53.162006" style="stroke: #000000; stroke-width: 0.5"/>
      </g>
     </g>
     <g id="line2d_70">
      <g>
       <use xlink:href="#m0c47f1b5dc" x="200.874348" y="53.162006" style="stroke: #000000; stroke-width: 0.5"/>
      </g>
     </g>
    </g>
    <g id="ytick_15">
     <g id="line2d_71">
      <g>
       <use xlink:href="#m7ae425cc07" x="33.474348" y="48.045825" style="stroke: #000000; stroke-width: 0.5"/>
      </g>
     </g>
     <g id="line2d_72">
      <g>
       <use xlink:href="#m0c47f1b5dc" x="200.874348" y="48.045825" style="stroke: #000000; stroke-width: 0.5"/>
      </g>
     </g>
    </g>
    <g id="ytick_16">
     <g id="line2d_73">
      <g>
       <use xlink:href="#m7ae425cc07" x="33.474348" y="42.929644" style="stroke: #000000; stroke-width: 0.5"/>
      </g>
     </g>
     <g id="line2d_74">
      <g>
       <use xlink:href="#m0c47f1b5dc" x="200.874348" y="42.929644" style="stroke: #000000; stroke-width: 0.5"/>
      </g>
     </g>
    </g>
    <g id="ytick_17">
     <g id="line2d_75">
      <g>
       <use xlink:href="#m7ae425cc07" x="33.474348" y="37.813463" style="stroke: #000000; stroke-width: 0.5"/>
      </g>
     </g>
     <g id="line2d_76">
      <g>
       <use xlink:href="#m0c47f1b5dc" x="200.874348" y="37.813463" style="stroke: #000000; stroke-width: 0.5"/>
      </g>
     </g>
    </g>
    <g id="ytick_18">
     <g id="line2d_77">
      <g>
       <use xlink:href="#m7ae425cc07" x="33.474348" y="27.5811" style="stroke: #000000; stroke-width: 0.5"/>
      </g>
     </g>
     <g id="line2d_78">
      <g>
       <use xlink:href="#m0c47f1b5dc" x="200.874348" y="27.5811" style="stroke: #000000; stroke-width: 0.5"/>
      </g>
     </g>
    </g>
    <g id="ytick_19">
     <g id="line2d_79">
      <g>
       <use xlink:href="#m7ae425cc07" x="33.474348" y="22.464919" style="stroke: #000000; stroke-width: 0.5"/>
      </g>
     </g>
     <g id="line2d_80">
      <g>
       <use xlink:href="#m0c47f1b5dc" x="200.874348" y="22.464919" style="stroke: #000000; stroke-width: 0.5"/>
      </g>
     </g>
    </g>
    <g id="ytick_20">
     <g id="line2d_81">
      <g>
       <use xlink:href="#m7ae425cc07" x="33.474348" y="17.348738" style="stroke: #000000; stroke-width: 0.5"/>
      </g>
     </g>
     <g id="line2d_82">
      <g>
       <use xlink:href="#m0c47f1b5dc" x="200.874348" y="17.348738" style="stroke: #000000; stroke-width: 0.5"/>
      </g>
     </g>
    </g>
    <g id="ytick_21">
     <g id="line2d_83">
      <g>
       <use xlink:href="#m7ae425cc07" x="33.474348" y="12.232557" style="stroke: #000000; stroke-width: 0.5"/>
      </g>
     </g>
     <g id="line2d_84">
      <g>
       <use xlink:href="#m0c47f1b5dc" x="200.874348" y="12.232557" style="stroke: #000000; stroke-width: 0.5"/>
      </g>
     </g>
    </g>
    <g id="text_13">
     <!-- Unit magnetization $\it{m_z}$ -->
     <g transform="translate(8.568824 93.034043) rotate(-90) scale(0.07 -0.07)">
      <defs>
       <path id="NimbusSanL-Regu-55" d="M 3533 4672 
L 3533 1395 
C 3533 768 3078 384 2330 384 
C 1984 384 1702 468 1478 628 
C 1248 806 1139 1044 1139 1395 
L 1139 4672 
L 544 4672 
L 544 1394 
C 544 447 1222 -141 2330 -141 
C 3424 -141 4128 460 4128 1394 
L 4128 4672 
L 3533 4672 
z
" transform="scale(0.015625)"/>
       <path id="NimbusSanL-Regu-74" d="M 1626 3380 
L 1075 3380 
L 1075 4288 
L 544 4288 
L 544 3380 
L 90 3380 
L 90 2944 
L 544 2944 
L 544 404 
C 544 64 774 -128 1190 -128 
C 1318 -128 1446 -116 1626 -83 
L 1626 366 
C 1555 346 1472 340 1370 340 
C 1139 340 1075 404 1075 641 
L 1075 2944 
L 1626 2944 
L 1626 3380 
z
" transform="scale(0.015625)"/>
       <path id="NimbusSanL-Regu-61" d="M 3424 333 
C 3366 320 3341 320 3309 320 
C 3123 320 3021 415 3021 581 
L 3021 2545 
C 3021 3137 2586 3456 1760 3456 
C 1274 3456 870 3316 646 3066 
C 493 2893 429 2702 416 2370 
L 954 2370 
C 998 2777 1242 2962 1741 2962 
C 2221 2962 2490 2783 2490 2465 
L 2490 2325 
C 2490 2101 2355 2006 1933 1955 
C 1178 1860 1062 1834 858 1751 
C 467 1592 269 1292 269 859 
C 269 254 691 -128 1370 -128 
C 1792 -128 2131 19 2509 365 
C 2547 25 2714 -128 3059 -128 
C 3168 -128 3251 -116 3424 -70 
L 3424 333 
z
M 2490 1072 
C 2490 893 2438 785 2278 639 
C 2061 441 1798 340 1485 340 
C 1069 340 826 537 826 874 
C 826 1225 1062 1403 1632 1486 
C 2195 1562 2310 1588 2490 1670 
L 2490 1072 
z
" transform="scale(0.015625)"/>
       <path id="NimbusSanL-Regu-67" d="M 2637 3341 
L 2637 2854 
C 2368 3252 2042 3438 1613 3438 
C 762 3438 186 2692 186 1600 
C 186 1048 333 598 608 276 
C 858 -7 1216 -173 1568 -173 
C 1990 -173 2285 6 2586 429 
L 2586 258 
C 2586 -192 2528 -465 2394 -649 
C 2253 -844 1978 -959 1651 -959 
C 1408 -959 1190 -896 1043 -783 
C 922 -688 870 -600 838 -406 
L 294 -406 
C 352 -1033 845 -1408 1632 -1408 
C 2131 -1408 2560 -1247 2778 -979 
C 3034 -671 3130 -249 3130 538 
L 3130 3341 
L 2637 3341 
z
M 1670 2944 
C 2246 2944 2586 2455 2586 1613 
C 2586 808 2240 320 1677 320 
C 1094 320 742 816 742 1632 
C 742 2442 1101 2944 1670 2944 
z
" transform="scale(0.015625)"/>
       <path id="NimbusSanL-Regu-7a" d="M 2835 3348 
L 333 3348 
L 333 2880 
L 2202 2880 
L 198 481 
L 198 0 
L 2925 0 
L 2925 468 
L 845 468 
L 2835 2874 
L 2835 3348 
z
" transform="scale(0.015625)"/>
       <path id="NimbusSanL-Regu-6f" d="M 1741 3456 
C 800 3456 230 2786 230 1663 
C 230 541 794 -128 1747 -128 
C 2688 -128 3264 541 3264 1638 
C 3264 2792 2707 3456 1741 3456 
z
M 1747 2962 
C 2349 2962 2707 2472 2707 1645 
C 2707 861 2336 365 1747 365 
C 1152 365 787 855 787 1663 
C 787 2466 1152 2962 1747 2962 
z
" transform="scale(0.015625)"/>
       <path id="NimbusSanL-ReguItal-6d" d="M 1165 3373 
L 454 0 
L 992 0 
L 1440 2119 
C 1542 2609 1978 3008 2406 3008 
C 2720 3008 2931 2827 2931 2564 
C 2931 2493 2925 2409 2906 2325 
L 2413 0 
L 2950 0 
L 3398 2119 
C 3501 2621 3942 3008 4403 3008 
C 4704 3008 4890 2821 4890 2512 
C 4890 2415 4890 2415 4832 2196 
L 4371 0 
L 4909 0 
L 5414 2401 
C 5434 2472 5453 2684 5453 2755 
C 5453 2923 5376 3102 5248 3251 
C 5107 3405 4934 3470 4640 3470 
C 4224 3470 3859 3303 3482 2937 
C 3379 3296 3130 3470 2707 3470 
C 2272 3470 1978 3341 1568 2956 
L 1651 3373 
L 1165 3373 
z
" transform="scale(0.015625)"/>
       <path id="NimbusSanL-ReguItal-7a" d="M 3565 3341 
L 1056 3341 
L 960 2880 
L 2842 2880 
L 314 471 
L 198 0 
L 2931 0 
L 3027 462 
L 941 462 
L 3450 2864 
L 3565 3341 
z
" transform="scale(0.015625)"/>
      </defs>
      <use xlink:href="#NimbusSanL-Regu-55" transform="scale(0.996264)"/>
      <use xlink:href="#NimbusSanL-Regu-6e" transform="translate(71.929985 0) scale(0.996264)"/>
      <use xlink:href="#NimbusSanL-Regu-69" transform="translate(127.321662 0) scale(0.996264)"/>
      <use xlink:href="#NimbusSanL-Regu-74" transform="translate(149.438446 0) scale(0.996264)"/>
      <use xlink:href="#NimbusSanL-Regu-6d" transform="translate(204.828785 0) scale(0.996264)"/>
      <use xlink:href="#NimbusSanL-Regu-61" transform="translate(287.817216 0) scale(0.996264)"/>
      <use xlink:href="#NimbusSanL-Regu-67" transform="translate(343.208893 0) scale(0.996264)"/>
      <use xlink:href="#NimbusSanL-Regu-6e" transform="translate(398.60057 0) scale(0.996264)"/>
      <use xlink:href="#NimbusSanL-Regu-65" transform="translate(453.992246 0) scale(0.996264)"/>
      <use xlink:href="#NimbusSanL-Regu-74" transform="translate(509.383923 0) scale(0.996264)"/>
      <use xlink:href="#NimbusSanL-Regu-69" transform="translate(537.079093 0) scale(0.996264)"/>
      <use xlink:href="#NimbusSanL-Regu-7a" transform="translate(559.195877 0) scale(0.996264)"/>
      <use xlink:href="#NimbusSanL-Regu-61" transform="translate(609.009078 0) scale(0.996264)"/>
      <use xlink:href="#NimbusSanL-Regu-74" transform="translate(664.400755 0) scale(0.996264)"/>
      <use xlink:href="#NimbusSanL-Regu-69" transform="translate(692.095924 0) scale(0.996264)"/>
      <use xlink:href="#NimbusSanL-Regu-6f" transform="translate(714.212709 0) scale(0.996264)"/>
      <use xlink:href="#NimbusSanL-Regu-6e" transform="translate(769.604386 0) scale(0.996264)"/>
      <use xlink:href="#NimbusSanL-ReguItal-6d" transform="translate(852.691232 0) scale(0.996264)"/>
      <use xlink:href="#NimbusSanL-ReguItal-7a" transform="translate(935.679663 -14.943915) scale(0.697382)"/>
     </g>
    </g>
   </g>
   <g id="line2d_85">
    <path d="M 41.083439 109.44 
L 42.620629 107.191178 
L 44.157819 107.258636 
L 45.695009 106.396434 
L 47.232199 106.608303 
L 48.769389 106.369693 
L 50.30658 106.453222 
L 51.84377 105.536057 
L 53.38096 105.950112 
L 54.91815 105.903013 
L 56.45534 106.542782 
L 57.99253 107.046709 
L 59.52972 106.942157 
L 61.06691 106.520457 
L 62.6041 106.854122 
L 64.14129 106.3326 
L 65.67848 106.320502 
L 67.21567 106.17291 
L 68.752861 106.257131 
L 70.290051 106.469064 
L 71.827241 106.906103 
L 73.364431 106.616491 
L 74.901621 106.350131 
L 76.438811 106.565373 
L 77.976001 105.693328 
L 79.513191 106.105157 
L 81.050381 105.161586 
L 82.587571 105.606594 
L 84.124761 105.083892 
L 85.661951 105.226473 
L 87.199142 104.852625 
L 88.736332 104.721976 
L 90.273522 104.948723 
L 91.810712 104.571429 
L 93.347902 105.029025 
L 94.885092 105.300133 
L 96.422282 104.315776 
L 97.959472 103.877566 
L 99.496662 104.899547 
L 101.033852 105.544232 
L 102.571042 106.18409 
L 104.108232 105.100267 
L 105.645423 104.685401 
L 107.182613 104.3312 
L 108.719803 104.296345 
L 110.256993 105.21376 
L 111.794183 105.701293 
L 113.331373 104.759839 
L 114.868563 105.000464 
L 116.405753 104.637573 
L 117.942943 104.244278 
L 119.480133 103.530873 
L 121.017323 102.338651 
L 122.554513 99.033339 
L 124.091704 93.617374 
L 125.628894 89.052132 
L 127.166084 85.612799 
L 128.703274 81.353585 
L 130.240464 76.661003 
L 131.777654 72.261554 
L 133.314844 66.288537 
L 134.852034 58.611623 
L 136.389224 52.250377 
L 137.926414 47.773921 
L 139.463604 40.119732 
L 141.000794 34.133601 
L 142.537985 29.096957 
L 144.075175 23.941445 
L 145.612365 18.886368 
L 147.149555 14.827115 
L 148.686745 10.97776 
L 150.223935 9.142542 
L 151.761125 8.840397 
L 153.298315 9.029895 
L 154.835505 8.976812 
L 156.372695 9.023518 
L 157.909885 8.82836 
L 159.447075 8.782319 
L 160.984266 8.988888 
L 162.521456 9.119052 
L 164.058646 8.951096 
L 165.595836 8.727389 
L 167.133026 8.772436 
L 168.670216 9.006136 
L 170.207406 8.96015 
L 171.744596 8.823853 
L 173.281786 8.765261 
L 174.818976 8.76953 
L 176.356166 8.868248 
L 177.893356 9.004999 
L 179.430546 8.856248 
L 180.967737 8.841528 
L 182.504927 8.861347 
L 184.042117 8.801772 
L 185.579307 8.799878 
L 187.116497 8.802101 
L 188.653687 8.829998 
L 190.190877 8.88727 
L 191.728067 8.888152 
L 193.265257 8.792142 
" clip-path="url(#pa7ed19d480)" style="fill: none; stroke: #8000ff; stroke-linecap: square"/>
   </g>
   <g id="line2d_86">
    <path d="M 41.083439 109.44 
L 42.620629 107.22793 
L 44.157819 106.654695 
L 45.695009 106.656702 
L 47.232199 106.701785 
L 48.769389 106.289062 
L 50.30658 106.259183 
L 51.84377 106.489843 
L 53.38096 106.728785 
L 54.91815 106.803491 
L 56.45534 107.107375 
L 57.99253 106.975958 
L 59.52972 107.109964 
L 61.06691 107.170442 
L 62.6041 106.863807 
L 64.14129 106.875749 
L 65.67848 105.753628 
L 67.21567 106.386911 
L 68.752861 106.504206 
L 70.290051 105.439123 
L 71.827241 106.445592 
L 73.364431 105.415627 
L 74.901621 105.800392 
L 76.438811 105.880697 
L 77.976001 106.600667 
L 79.513191 107.050908 
L 81.050381 106.457604 
L 82.587571 105.098612 
L 84.124761 105.436793 
L 85.661951 104.340074 
L 87.199142 105.089802 
L 88.736332 105.942955 
L 90.273522 106.514483 
L 91.810712 105.467202 
L 93.347902 106.39089 
L 94.885092 105.385769 
L 96.422282 105.323331 
L 97.959472 106.063833 
L 99.496662 106.314632 
L 101.033852 105.936127 
L 102.571042 106.568267 
L 104.108232 106.663069 
L 105.645423 106.035513 
L 107.182613 105.24774 
L 108.719803 105.301442 
L 110.256993 105.734514 
L 111.794183 106.284305 
L 113.331373 106.534347 
L 114.868563 106.418787 
L 116.405753 106.519667 
L 117.942943 106.095155 
L 119.480133 105.933005 
L 121.017323 106.002926 
L 122.554513 106.032854 
L 124.091704 106.166134 
L 125.628894 105.331427 
L 127.166084 105.381567 
L 128.703274 105.539009 
L 130.240464 105.125648 
L 131.777654 105.199086 
L 133.314844 105.114438 
L 134.852034 103.224382 
L 136.389224 99.904786 
L 137.926414 92.794667 
L 139.463604 85.299452 
L 141.000794 78.694082 
L 142.537985 68.241527 
L 144.075175 60.131046 
L 145.612365 51.73138 
L 147.149555 42.66002 
L 148.686745 34.801399 
L 150.223935 28.881404 
L 151.761125 22.041514 
L 153.298315 18.68832 
L 154.835505 14.324493 
L 156.372695 10.381757 
L 157.909885 8.936702 
L 159.447075 9.089606 
L 160.984266 9.08592 
L 162.521456 8.857959 
L 164.058646 8.887472 
L 165.595836 9.024735 
L 167.133026 9.111919 
L 168.670216 9.234902 
L 170.207406 8.850741 
L 171.744596 8.888853 
L 173.281786 8.743225 
L 174.818976 8.677234 
L 176.356166 9.036256 
L 177.893356 8.939926 
L 179.430546 8.829031 
L 180.967737 8.775001 
L 182.504927 8.911437 
L 184.042117 8.867589 
L 185.579307 8.811976 
L 187.116497 8.813397 
L 188.653687 8.757396 
L 190.190877 9.094909 
L 191.728067 8.970722 
L 193.265257 8.864994 
" clip-path="url(#pa7ed19d480)" style="fill: none; stroke: #4856fb; stroke-linecap: square"/>
   </g>
   <g id="line2d_87">
    <path d="M 41.083439 109.44 
L 42.620629 107.520098 
L 44.157819 106.977315 
L 45.695009 106.713495 
L 47.232199 106.791361 
L 48.769389 106.638975 
L 50.30658 106.33811 
L 51.84377 105.767034 
L 53.38096 106.239112 
L 54.91815 105.864431 
L 56.45534 106.196824 
L 57.99253 105.635207 
L 59.52972 106.195477 
L 61.06691 105.936374 
L 62.6041 105.972907 
L 64.14129 106.424447 
L 65.67848 106.26713 
L 67.21567 106.317556 
L 68.752861 104.30907 
L 70.290051 104.508025 
L 71.827241 104.795374 
L 73.364431 104.371771 
L 74.901621 105.291525 
L 76.438811 103.878111 
L 77.976001 102.590413 
L 79.513191 95.441043 
L 81.050381 91.839688 
L 82.587571 86.744443 
L 84.124761 83.655443 
L 85.661951 76.437104 
L 87.199142 72.132625 
L 88.736332 65.868633 
L 90.273522 60.137579 
L 91.810712 52.88657 
L 93.347902 47.010522 
L 94.885092 43.010314 
L 96.422282 37.897261 
L 97.959472 32.789086 
L 99.496662 27.760058 
L 101.033852 23.851153 
L 102.571042 19.971179 
L 104.108232 15.206635 
L 105.645423 11.413702 
L 107.182613 9.463662 
L 108.719803 9.100893 
L 110.256993 8.851344 
L 111.794183 8.905064 
L 113.331373 8.773546 
L 114.868563 8.986202 
L 116.405753 8.929618 
L 117.942943 8.99689 
L 119.480133 8.979639 
L 121.017323 9.201614 
L 122.554513 9.094333 
L 124.091704 8.728749 
L 125.628894 8.935784 
L 127.166084 8.79001 
L 128.703274 8.786241 
L 130.240464 8.724266 
L 131.777654 8.850396 
L 133.314844 9.060661 
L 134.852034 8.857571 
L 136.389224 8.972772 
L 137.926414 8.716283 
L 139.463604 8.962495 
L 141.000794 9.072752 
L 142.537985 8.861642 
L 144.075175 8.99127 
L 145.612365 8.926862 
L 147.149555 8.874008 
L 148.686745 8.867717 
L 150.223935 8.728258 
L 151.761125 8.895681 
L 153.298315 8.954966 
L 154.835505 8.939929 
L 156.372695 8.903981 
L 157.909885 9.018017 
L 159.447075 8.91624 
L 160.984266 8.897828 
L 162.521456 8.773235 
L 164.058646 8.685453 
L 165.595836 9.036539 
L 167.133026 8.900529 
L 168.670216 8.886822 
L 170.207406 8.788964 
L 171.744596 8.868861 
L 173.281786 8.813394 
L 174.818976 9.1652 
L 176.356166 8.916539 
L 177.893356 8.957896 
L 179.430546 8.939099 
L 180.967737 8.953173 
L 182.504927 9.044932 
L 184.042117 8.817821 
L 185.579307 8.838723 
L 187.116497 8.734302 
L 188.653687 8.827049 
L 190.190877 8.863923 
L 191.728067 8.81347 
L 193.265257 8.925139 
" clip-path="url(#pa7ed19d480)" style="fill: none; stroke: #10a2f0; stroke-linecap: square"/>
   </g>
   <g id="line2d_88">
    <path d="M 41.083439 109.44 
L 42.620629 107.301109 
L 44.157819 107.035929 
L 45.695009 106.135322 
L 47.232199 106.659031 
L 48.769389 106.52178 
L 50.30658 106.3476 
L 51.84377 106.392485 
L 53.38096 106.62918 
L 54.91815 106.792153 
L 56.45534 106.640615 
L 57.99253 106.783731 
L 59.52972 106.414432 
L 61.06691 106.572139 
L 62.6041 106.111915 
L 64.14129 106.302471 
L 65.67848 106.329315 
L 67.21567 106.745182 
L 68.752861 106.806407 
L 70.290051 106.012971 
L 71.827241 106.412087 
L 73.364431 106.795325 
L 74.901621 106.714318 
L 76.438811 106.11068 
L 77.976001 105.800502 
L 79.513191 105.437153 
L 81.050381 105.400443 
L 82.587571 105.629078 
L 84.124761 105.336602 
L 85.661951 105.618475 
L 87.199142 105.829563 
L 88.736332 105.770272 
L 90.273522 106.081347 
L 91.810712 106.182678 
L 93.347902 106.29771 
L 94.885092 106.130931 
L 96.422282 105.677891 
L 97.959472 106.453624 
L 99.496662 106.043936 
L 101.033852 106.126909 
L 102.571042 106.004125 
L 104.108232 105.102274 
L 105.645423 104.852598 
L 107.182613 103.694947 
L 108.719803 104.733775 
L 110.256993 104.863112 
L 111.794183 104.71331 
L 113.331373 104.944201 
L 114.868563 105.150761 
L 116.405753 104.455204 
L 117.942943 103.632689 
L 119.480133 103.240553 
L 121.017323 101.646806 
L 122.554513 97.333564 
L 124.091704 93.708642 
L 125.628894 90.110431 
L 127.166084 88.293845 
L 128.703274 82.092169 
L 130.240464 77.968739 
L 131.777654 71.353747 
L 133.314844 66.713721 
L 134.852034 59.141637 
L 136.389224 52.824462 
L 137.926414 46.749454 
L 139.463604 39.422008 
L 141.000794 32.129157 
L 142.537985 27.372694 
L 144.075175 22.379485 
L 145.612365 17.289455 
L 147.149555 14.330525 
L 148.686745 10.88723 
L 150.223935 9.29183 
L 151.761125 8.985985 
L 153.298315 8.991224 
L 154.835505 9.013055 
L 156.372695 9.16831 
L 157.909885 8.954783 
L 159.447075 8.865558 
L 160.984266 8.819349 
L 162.521456 8.830724 
L 164.058646 8.829528 
L 165.595836 8.92369 
L 167.133026 8.81841 
L 168.670216 8.761604 
L 170.207406 8.872078 
L 171.744596 8.694946 
L 173.281786 8.973436 
L 174.818976 8.783865 
L 176.356166 9.057072 
L 177.893356 9.167261 
L 179.430546 9.076789 
L 180.967737 8.949358 
L 182.504927 8.934107 
L 184.042117 8.949519 
L 185.579307 8.801409 
L 187.116497 8.886694 
L 188.653687 8.81468 
L 190.190877 8.94099 
L 191.728067 9.20878 
L 193.265257 8.931939 
" clip-path="url(#pa7ed19d480)" style="fill: none; stroke: #2adddd; stroke-linecap: square"/>
   </g>
   <g id="line2d_89">
    <path d="M 41.083439 109.44 
L 42.620629 107.057608 
L 44.157819 107.323754 
L 45.695009 106.882796 
L 47.232199 106.49127 
L 48.769389 106.592135 
L 50.30658 106.265825 
L 51.84377 106.789366 
L 53.38096 106.942057 
L 54.91815 106.812975 
L 56.45534 106.505828 
L 57.99253 106.891588 
L 59.52972 105.966101 
L 61.06691 106.141885 
L 62.6041 106.355388 
L 64.14129 106.037721 
L 65.67848 105.581454 
L 67.21567 105.761962 
L 68.752861 106.156257 
L 70.290051 106.101431 
L 71.827241 105.538771 
L 73.364431 105.662183 
L 74.901621 105.770766 
L 76.438811 106.251922 
L 77.976001 105.624553 
L 79.513191 105.814673 
L 81.050381 105.946383 
L 82.587571 105.710472 
L 84.124761 105.166298 
L 85.661951 105.446871 
L 87.199142 104.413972 
L 88.736332 102.874304 
L 90.273522 102.624845 
L 91.810712 101.540364 
L 93.347902 96.29094 
L 94.885092 96.254651 
L 96.422282 91.441151 
L 97.959472 87.286519 
L 99.496662 80.624268 
L 101.033852 75.516395 
L 102.571042 70.651018 
L 104.108232 63.96847 
L 105.645423 58.504401 
L 107.182613 53.71327 
L 108.719803 47.140811 
L 110.256993 39.170152 
L 111.794183 33.448956 
L 113.331373 28.430846 
L 114.868563 23.153099 
L 116.405753 18.778481 
L 117.942943 14.647522 
L 119.480133 10.40346 
L 121.017323 9.214778 
L 122.554513 9.123135 
L 124.091704 8.946891 
L 125.628894 8.812457 
L 127.166084 8.827092 
L 128.703274 8.888097 
L 130.240464 8.946168 
L 131.777654 8.99155 
L 133.314844 8.972525 
L 134.852034 9.051409 
L 136.389224 8.94672 
L 137.926414 8.819197 
L 139.463604 9.092808 
L 141.000794 8.859194 
L 142.537985 8.822161 
L 144.075175 8.818093 
L 145.612365 8.830898 
L 147.149555 8.97068 
L 148.686745 8.826805 
L 150.223935 8.755109 
L 151.761125 8.674392 
L 153.298315 8.781529 
L 154.835505 8.759912 
L 156.372695 9.038034 
L 157.909885 8.896574 
L 159.447075 9.01619 
L 160.984266 8.90425 
L 162.521456 8.952612 
L 164.058646 8.907665 
L 165.595836 8.88649 
L 167.133026 9.0447 
L 168.670216 8.903631 
L 170.207406 8.835466 
L 171.744596 8.961165 
L 173.281786 9.049795 
L 174.818976 9.151825 
L 176.356166 8.991572 
L 177.893356 8.737571 
L 179.430546 8.703234 
L 180.967737 8.914283 
L 182.504927 8.890475 
L 184.042117 8.862039 
L 185.579307 8.851418 
L 187.116497 8.994661 
L 188.653687 8.912056 
L 190.190877 8.864241 
L 191.728067 8.998668 
L 193.265257 9.153694 
" clip-path="url(#pa7ed19d480)" style="fill: none; stroke: #62fbc4; stroke-linecap: square"/>
   </g>
   <g id="line2d_90">
    <path d="M 41.083439 109.44 
L 42.620629 107.221283 
L 44.157819 107.122095 
L 45.695009 107.119726 
L 47.232199 107.19717 
L 48.769389 107.071553 
L 50.30658 106.944603 
L 51.84377 106.719585 
L 53.38096 106.640905 
L 54.91815 106.51938 
L 56.45534 106.978038 
L 57.99253 106.938974 
L 59.52972 106.913053 
L 61.06691 106.088113 
L 62.6041 106.027746 
L 64.14129 106.065102 
L 65.67848 106.220119 
L 67.21567 106.246302 
L 68.752861 106.270628 
L 70.290051 106.138616 
L 71.827241 104.944305 
L 73.364431 105.60116 
L 74.901621 105.102323 
L 76.438811 104.759909 
L 77.976001 105.645628 
L 79.513191 104.467204 
L 81.050381 104.971222 
L 82.587571 105.925338 
L 84.124761 105.543729 
L 85.661951 105.66408 
L 87.199142 104.458757 
L 88.736332 103.967394 
L 90.273522 102.338657 
L 91.810712 101.011837 
L 93.347902 98.452324 
L 94.885092 95.39152 
L 96.422282 92.961635 
L 97.959472 90.1475 
L 99.496662 86.496304 
L 101.033852 82.482579 
L 102.571042 78.339965 
L 104.108232 73.269673 
L 105.645423 68.268661 
L 107.182613 63.075399 
L 108.719803 57.266383 
L 110.256993 53.665065 
L 111.794183 45.997616 
L 113.331373 39.391157 
L 114.868563 32.69375 
L 116.405753 25.766972 
L 117.942943 18.876872 
L 119.480133 15.160771 
L 121.017323 11.900231 
L 122.554513 9.69767 
L 124.091704 9.08019 
L 125.628894 8.802833 
L 127.166084 9.015062 
L 128.703274 8.813433 
L 130.240464 8.975031 
L 131.777654 9.002464 
L 133.314844 8.903966 
L 134.852034 8.863085 
L 136.389224 8.802013 
L 137.926414 9.052122 
L 139.463604 8.775504 
L 141.000794 8.885282 
L 142.537985 8.788958 
L 144.075175 8.833648 
L 145.612365 9.094464 
L 147.149555 8.875396 
L 148.686745 9.042815 
L 150.223935 8.784539 
L 151.761125 8.937907 
L 153.298315 8.98164 
L 154.835505 9.017684 
L 156.372695 8.912706 
L 157.909885 8.815116 
L 159.447075 8.712221 
L 160.984266 9.023253 
L 162.521456 8.662902 
L 164.058646 9.047499 
L 165.595836 8.822463 
L 167.133026 9.025735 
L 168.670216 8.886404 
L 170.207406 8.857702 
L 171.744596 8.961912 
L 173.281786 8.751245 
L 174.818976 8.684394 
L 176.356166 8.798012 
L 177.893356 8.808877 
L 179.430546 8.934626 
L 180.967737 8.944167 
L 182.504927 8.905915 
L 184.042117 8.816272 
L 185.579307 9.022103 
L 187.116497 9.120659 
L 188.653687 8.885044 
L 190.190877 8.767188 
L 191.728067 9.006182 
L 193.265257 8.827436 
" clip-path="url(#pa7ed19d480)" style="fill: none; stroke: #9cfba4; stroke-linecap: square"/>
   </g>
   <g id="line2d_91">
    <path d="M 41.083439 109.44 
L 42.620629 107.127974 
L 44.157819 106.797588 
L 45.695009 106.630162 
L 47.232199 106.305102 
L 48.769389 106.553358 
L 50.30658 106.223212 
L 51.84377 106.195516 
L 53.38096 106.404534 
L 54.91815 105.377441 
L 56.45534 106.37184 
L 57.99253 106.087235 
L 59.52972 105.720962 
L 61.06691 106.036352 
L 62.6041 106.010407 
L 64.14129 106.119096 
L 65.67848 106.491609 
L 67.21567 105.426531 
L 68.752861 105.832448 
L 70.290051 105.59636 
L 71.827241 106.125787 
L 73.364431 106.048492 
L 74.901621 106.00418 
L 76.438811 105.454593 
L 77.976001 105.130848 
L 79.513191 104.489499 
L 81.050381 104.703018 
L 82.587571 103.977704 
L 84.124761 104.156727 
L 85.661951 103.525488 
L 87.199142 98.68972 
L 88.736332 90.557134 
L 90.273522 90.470654 
L 91.810712 85.965371 
L 93.347902 81.034507 
L 94.885092 78.850369 
L 96.422282 74.656396 
L 97.959472 68.903168 
L 99.496662 61.313012 
L 101.033852 58.071663 
L 102.571042 52.379271 
L 104.108232 45.685262 
L 105.645423 39.557889 
L 107.182613 34.925647 
L 108.719803 29.200294 
L 110.256993 24.540632 
L 111.794183 20.034053 
L 113.331373 16.388638 
L 114.868563 12.574289 
L 116.405753 9.335861 
L 117.942943 8.961037 
L 119.480133 8.783536 
L 121.017323 8.772765 
L 122.554513 8.892436 
L 124.091704 8.899859 
L 125.628894 8.890396 
L 127.166084 8.856965 
L 128.703274 8.778126 
L 130.240464 8.744716 
L 131.777654 9.092037 
L 133.314844 9.076058 
L 134.852034 8.856965 
L 136.389224 9.084602 
L 137.926414 9.080857 
L 139.463604 8.937029 
L 141.000794 8.855632 
L 142.537985 9.014644 
L 144.075175 8.848563 
L 145.612365 8.762449 
L 147.149555 8.82536 
L 148.686745 9.151407 
L 150.223935 9.018819 
L 151.761125 8.89139 
L 153.298315 8.723513 
L 154.835505 9.149401 
L 156.372695 8.867147 
L 157.909885 8.917326 
L 159.447075 8.89419 
L 160.984266 8.984753 
L 162.521456 8.989285 
L 164.058646 9.116896 
L 165.595836 8.748315 
L 167.133026 8.935254 
L 168.670216 9.011229 
L 170.207406 8.840174 
L 171.744596 8.835237 
L 173.281786 8.905735 
L 174.818976 8.793557 
L 176.356166 9.014781 
L 177.893356 8.873468 
L 179.430546 8.821877 
L 180.967737 9.141027 
L 182.504927 8.763159 
L 184.042117 8.785787 
L 185.579307 8.759448 
L 187.116497 8.932409 
L 188.653687 8.942917 
L 190.190877 8.943442 
L 191.728067 8.921379 
L 193.265257 9.11166 
" clip-path="url(#pa7ed19d480)" style="fill: none; stroke: #d4dd80; stroke-linecap: square"/>
   </g>
   <g id="line2d_92">
    <path d="M 41.083439 109.44 
L 42.620629 107.482038 
L 44.157819 107.456614 
L 45.695009 107.140361 
L 47.232199 106.74871 
L 48.769389 106.794931 
L 50.30658 106.33184 
L 51.84377 106.661163 
L 53.38096 105.655474 
L 54.91815 105.65907 
L 56.45534 106.382922 
L 57.99253 106.46302 
L 59.52972 106.151628 
L 61.06691 106.481402 
L 62.6041 106.466158 
L 64.14129 106.217396 
L 65.67848 105.983382 
L 67.21567 105.422018 
L 68.752861 105.408119 
L 70.290051 104.593578 
L 71.827241 103.266337 
L 73.364431 101.411413 
L 74.901621 98.326774 
L 76.438811 92.869748 
L 77.976001 91.371083 
L 79.513191 89.370919 
L 81.050381 85.317139 
L 82.587571 80.974644 
L 84.124761 77.159999 
L 85.661951 71.383741 
L 87.199142 65.489472 
L 88.736332 61.037873 
L 90.273522 53.60067 
L 91.810712 49.189989 
L 93.347902 43.689019 
L 94.885092 36.477144 
L 96.422282 30.500905 
L 97.959472 23.763416 
L 99.496662 17.416777 
L 101.033852 13.985994 
L 102.571042 10.394202 
L 104.108232 8.941691 
L 105.645423 8.970948 
L 107.182613 8.873108 
L 108.719803 8.876454 
L 110.256993 8.911553 
L 111.794183 8.719543 
L 113.331373 8.781923 
L 114.868563 8.820121 
L 116.405753 8.968234 
L 117.942943 8.79986 
L 119.480133 8.823774 
L 121.017323 9.075853 
L 122.554513 8.923208 
L 124.091704 8.675417 
L 125.628894 8.713767 
L 127.166084 8.721525 
L 128.703274 8.874627 
L 130.240464 8.722696 
L 131.777654 8.901173 
L 133.314844 8.723333 
L 134.852034 9.082611 
L 136.389224 8.849618 
L 137.926414 9.03309 
L 139.463604 8.832151 
L 141.000794 8.933491 
L 142.537985 8.731381 
L 144.075175 8.734555 
L 145.612365 8.884678 
L 147.149555 8.942329 
L 148.686745 8.93537 
L 150.223935 8.962358 
L 151.761125 8.877457 
L 153.298315 9.020051 
L 154.835505 9.044553 
L 156.372695 9.145787 
L 157.909885 8.796795 
L 159.447075 8.930466 
L 160.984266 8.896352 
L 162.521456 8.872306 
L 164.058646 8.682147 
L 165.595836 8.824314 
L 167.133026 9.068452 
L 168.670216 8.805355 
L 170.207406 8.799564 
L 171.744596 9.023725 
L 173.281786 8.980325 
L 174.818976 8.870754 
L 176.356166 8.977599 
L 177.893356 8.982801 
L 179.430546 8.913505 
L 180.967737 8.879683 
L 182.504927 8.894098 
L 184.042117 8.771244 
L 185.579307 8.680647 
L 187.116497 9.062899 
L 188.653687 8.986897 
L 190.190877 9.037286 
L 191.728067 8.966542 
L 193.265257 8.910172 
" clip-path="url(#pa7ed19d480)" style="fill: none; stroke: #ffa256; stroke-linecap: square"/>
   </g>
   <g id="line2d_93">
    <path d="M 41.083439 109.44 
L 42.620629 107.15456 
L 44.157819 106.763818 
L 45.695009 106.833733 
L 47.232199 106.616738 
L 48.769389 106.609377 
L 50.30658 106.268374 
L 51.84377 106.852106 
L 53.38096 107.095171 
L 54.91815 106.877749 
L 56.45534 106.566196 
L 57.99253 106.65178 
L 59.52972 106.026453 
L 61.06691 105.530183 
L 62.6041 106.548585 
L 64.14129 106.652194 
L 65.67848 105.901616 
L 67.21567 106.41621 
L 68.752861 105.191182 
L 70.290051 106.605187 
L 71.827241 105.806966 
L 73.364431 106.325598 
L 74.901621 106.027746 
L 76.438811 105.898192 
L 77.976001 106.25693 
L 79.513191 105.664507 
L 81.050381 105.663446 
L 82.587571 105.094852 
L 84.124761 105.496575 
L 85.661951 105.577319 
L 87.199142 106.050428 
L 88.736332 105.737899 
L 90.273522 105.014071 
L 91.810712 105.19747 
L 93.347902 105.570839 
L 94.885092 106.042935 
L 96.422282 105.962786 
L 97.959472 105.942803 
L 99.496662 105.968931 
L 101.033852 106.512305 
L 102.571042 106.21735 
L 104.108232 105.759757 
L 105.645423 106.286772 
L 107.182613 106.740318 
L 108.719803 106.816589 
L 110.256993 106.700797 
L 111.794183 106.381843 
L 113.331373 106.379775 
L 114.868563 106.2931 
L 116.405753 104.684824 
L 117.942943 105.990289 
L 119.480133 105.965131 
L 121.017323 106.742871 
L 122.554513 106.732954 
L 124.091704 106.843778 
L 125.628894 106.798054 
L 127.166084 106.143635 
L 128.703274 105.982245 
L 130.240464 105.861366 
L 131.777654 105.492946 
L 133.314844 105.581277 
L 134.852034 105.291339 
L 136.389224 104.955454 
L 137.926414 105.241394 
L 139.463604 105.762179 
L 141.000794 105.60957 
L 142.537985 106.156837 
L 144.075175 106.135661 
L 145.612365 106.516492 
L 147.149555 106.449953 
L 148.686745 107.007422 
L 150.223935 106.338104 
L 151.761125 106.33875 
L 153.298315 106.310677 
L 154.835505 106.263477 
L 156.372695 105.60367 
L 157.909885 105.824919 
L 159.447075 105.817051 
L 160.984266 105.465833 
L 162.521456 105.664684 
L 164.058646 105.581204 
L 165.595836 105.095364 
L 167.133026 105.060917 
L 168.670216 105.183784 
L 170.207406 104.011654 
L 171.744596 103.972712 
L 173.281786 102.685343 
L 174.818976 101.404671 
L 176.356166 99.718768 
L 177.893356 93.987014 
L 179.430546 91.038909 
L 180.967737 83.233136 
L 182.504927 75.979811 
L 184.042117 68.009179 
L 185.579307 62.837568 
L 187.116497 56.143647 
L 188.653687 47.76452 
L 190.190877 41.735771 
L 191.728067 34.517917 
L 193.265257 29.202289 
" clip-path="url(#pa7ed19d480)" style="fill: none; stroke: #ff562c; stroke-linecap: square"/>
   </g>
   <g id="line2d_94">
    <path d="M 41.083439 109.44 
L 42.620629 107.181828 
L 44.157819 106.947509 
L 45.695009 106.970069 
L 47.232199 106.8516 
L 48.769389 106.933613 
L 50.30658 106.894372 
L 51.84377 106.166763 
L 53.38096 106.338671 
L 54.91815 106.454097 
L 56.45534 106.237596 
L 57.99253 105.746084 
L 59.52972 104.992563 
L 61.06691 104.765273 
L 62.6041 103.382772 
L 64.14129 99.260233 
L 65.67848 96.784172 
L 67.21567 92.208282 
L 68.752861 89.610864 
L 70.290051 85.05539 
L 71.827241 80.352213 
L 73.364431 76.352202 
L 74.901621 69.7209 
L 76.438811 63.780521 
L 77.976001 57.667575 
L 79.513191 52.170508 
L 81.050381 45.363787 
L 82.587571 40.731019 
L 84.124761 35.079716 
L 85.661951 28.241632 
L 87.199142 22.890746 
L 88.736332 17.919789 
L 90.273522 13.012862 
L 91.810712 10.108368 
L 93.347902 9.360406 
L 94.885092 9.038485 
L 96.422282 9.333342 
L 97.959472 9.228791 
L 99.496662 8.650859 
L 101.033852 8.81268 
L 102.571042 8.790248 
L 104.108232 8.910831 
L 105.645423 8.831645 
L 107.182613 8.884297 
L 108.719803 9.168121 
L 110.256993 8.918348 
L 111.794183 8.759668 
L 113.331373 8.788052 
L 114.868563 8.817065 
L 116.405753 8.712459 
L 117.942943 9.128945 
L 119.480133 9.02658 
L 121.017323 8.899358 
L 122.554513 8.95825 
L 124.091704 9.062213 
L 125.628894 9.049186 
L 127.166084 8.846322 
L 128.703274 8.955033 
L 130.240464 8.724559 
L 131.777654 8.94325 
L 133.314844 8.64 
L 134.852034 8.904875 
L 136.389224 8.751931 
L 137.926414 8.723312 
L 139.463604 8.747525 
L 141.000794 8.973763 
L 142.537985 8.818044 
L 144.075175 8.9402 
L 145.612365 8.828089 
L 147.149555 8.958765 
L 148.686745 8.841989 
L 150.223935 9.053629 
L 151.761125 9.070315 
L 153.298315 8.900536 
L 154.835505 8.80262 
L 156.372695 8.929612 
L 157.909885 9.027025 
L 159.447075 9.14092 
L 160.984266 8.902966 
L 162.521456 8.78059 
L 164.058646 8.957951 
L 165.595836 8.889137 
L 167.133026 8.998369 
L 168.670216 8.949583 
L 170.207406 9.012842 
L 171.744596 8.792434 
L 173.281786 8.779621 
L 174.818976 8.797497 
L 176.356166 8.791251 
L 177.893356 8.792694 
L 179.430546 8.831282 
L 180.967737 8.889737 
L 182.504927 8.839088 
L 184.042117 9.017803 
L 185.579307 8.822246 
L 187.116497 8.803644 
L 188.653687 8.871703 
L 190.190877 8.807996 
L 191.728067 8.87939 
L 193.265257 9.026022 
" clip-path="url(#pa7ed19d480)" style="fill: none; stroke: #ff0000; stroke-linecap: square"/>
   </g>
   <g id="patch_3">
    <path d="M 33.474348 114.48 
L 33.474348 3.6 
" style="fill: none; stroke: #000000; stroke-width: 0.5; stroke-linejoin: miter; stroke-linecap: square"/>
   </g>
   <g id="patch_4">
    <path d="M 200.874348 114.48 
L 200.874348 3.6 
" style="fill: none; stroke: #000000; stroke-width: 0.5; stroke-linejoin: miter; stroke-linecap: square"/>
   </g>
   <g id="patch_5">
    <path d="M 33.474348 114.48 
L 200.874348 114.48 
" style="fill: none; stroke: #000000; stroke-width: 0.5; stroke-linejoin: miter; stroke-linecap: square"/>
   </g>
   <g id="patch_6">
    <path d="M 33.474348 3.6 
L 200.874348 3.6 
" style="fill: none; stroke: #000000; stroke-width: 0.5; stroke-linejoin: miter; stroke-linecap: square"/>
   </g>
  </g>
 </g>
 <defs>
  <clipPath id="pa7ed19d480">
   <rect x="33.474348" y="3.6" width="167.4" height="110.88"/>
  </clipPath>
 </defs>
</svg>
